<svg id="svg" version="1.1" xmlns="http://www.w3.org/2000/svg" xmlns:xlink="http://www.w3.org/1999/xlink" width="400" height="79.90314769975787" viewBox="0, 0, 400,79.90314769975787"><g id="svgg"><path id="path0" d="M103.000 6.250 C 103.000 6.449,102.759 6.500,101.828 6.500 C 100.940 6.500,100.633 6.561,100.560 6.750 C 100.498 6.913,100.238 7.000,99.810 7.000 C 99.383 7.000,99.123 7.087,99.060 7.250 C 98.998 7.413,98.738 7.500,98.316 7.500 C 97.850 7.500,97.667 7.571,97.667 7.750 C 97.667 7.917,97.500 8.000,97.167 8.000 C 96.833 8.000,96.667 8.083,96.667 8.250 C 96.667 8.417,96.500 8.500,96.167 8.500 C 95.833 8.500,95.667 8.583,95.667 8.750 C 95.667 8.917,95.500 9.000,95.167 9.000 C 94.833 9.000,94.667 9.083,94.667 9.250 C 94.667 9.417,94.500 9.500,94.167 9.500 C 93.833 9.500,93.667 9.583,93.667 9.750 C 93.667 9.887,93.542 10.000,93.389 10.000 C 93.015 10.000,91.833 10.531,91.833 10.699 C 91.833 10.773,91.693 10.833,91.520 10.833 C 91.348 10.833,91.114 10.946,91.000 11.083 C 90.886 11.221,90.689 11.333,90.563 11.333 C 90.437 11.333,90.333 11.446,90.333 11.583 C 90.333 11.740,90.175 11.833,89.911 11.833 C 89.679 11.833,89.446 11.946,89.394 12.083 C 89.341 12.221,89.193 12.333,89.066 12.333 C 88.938 12.333,88.833 12.446,88.833 12.583 C 88.833 12.735,88.679 12.833,88.442 12.833 C 88.203 12.833,87.900 13.028,87.667 13.333 C 87.456 13.608,87.142 13.833,86.970 13.833 C 86.797 13.833,86.613 13.946,86.560 14.083 C 86.508 14.221,86.360 14.333,86.232 14.333 C 86.104 14.333,86.000 14.446,86.000 14.583 C 86.000 14.721,85.888 14.833,85.750 14.833 C 85.612 14.833,85.500 14.902,85.500 14.987 C 85.500 15.071,85.274 15.190,84.999 15.250 C 84.723 15.311,84.540 15.429,84.592 15.514 C 84.644 15.598,84.594 15.667,84.481 15.667 C 84.368 15.667,83.953 16.004,83.558 16.417 C 83.162 16.829,82.763 17.167,82.669 17.167 C 82.576 17.167,82.500 17.279,82.500 17.417 C 82.500 17.634,82.196 17.750,81.792 17.686 C 81.723 17.676,81.667 17.779,81.667 17.917 C 81.667 18.054,81.554 18.167,81.417 18.167 C 81.279 18.167,81.167 18.279,81.167 18.417 C 81.167 18.554,81.054 18.667,80.917 18.667 C 80.779 18.667,80.667 18.779,80.667 18.917 C 80.667 19.054,80.554 19.167,80.417 19.167 C 80.279 19.167,80.167 19.279,80.167 19.417 C 80.167 19.554,80.054 19.667,79.917 19.667 C 79.779 19.667,79.667 19.779,79.667 19.917 C 79.667 20.054,79.586 20.167,79.487 20.167 C 79.253 20.167,77.237 22.185,77.292 22.364 C 77.315 22.439,77.221 22.500,77.083 22.500 C 76.946 22.500,76.833 22.613,76.833 22.750 C 76.833 22.887,76.721 23.000,76.583 23.000 C 76.446 23.000,76.333 23.113,76.333 23.250 C 76.333 23.387,76.221 23.500,76.083 23.500 C 75.946 23.500,75.833 23.613,75.833 23.750 C 75.833 23.887,75.721 24.000,75.583 24.000 C 75.446 24.000,75.333 24.113,75.333 24.250 C 75.333 24.387,75.221 24.500,75.083 24.500 C 74.946 24.500,74.833 24.613,74.833 24.750 C 74.833 24.887,74.721 25.000,74.583 25.000 C 74.446 25.000,74.333 25.113,74.333 25.250 C 74.333 25.387,74.208 25.500,74.056 25.500 C 73.903 25.500,73.827 25.550,73.888 25.610 C 73.948 25.671,73.848 25.825,73.666 25.953 C 73.483 26.081,73.333 26.294,73.333 26.426 C 73.333 26.558,73.033 26.967,72.667 27.333 C 72.300 27.700,72.000 28.075,72.000 28.167 C 72.000 28.258,71.887 28.333,71.750 28.333 C 71.612 28.333,71.500 28.438,71.500 28.566 C 71.500 28.693,71.387 28.841,71.250 28.894 C 71.112 28.946,71.000 29.179,71.000 29.411 C 71.000 29.643,70.925 29.833,70.833 29.833 C 70.627 29.833,70.000 30.446,70.000 30.649 C 70.000 30.731,69.887 30.841,69.750 30.894 C 69.612 30.946,69.500 31.104,69.500 31.245 C 69.500 31.535,68.923 32.167,68.657 32.167 C 68.560 32.167,68.525 32.239,68.580 32.327 C 68.634 32.416,68.533 32.634,68.355 32.812 C 68.176 32.990,68.000 33.274,67.964 33.443 C 67.927 33.612,67.808 33.731,67.698 33.708 C 67.589 33.685,67.500 33.773,67.500 33.903 C 67.500 34.033,67.416 34.167,67.313 34.201 C 67.209 34.236,67.125 34.467,67.125 34.715 C 67.125 34.964,67.053 35.167,66.964 35.167 C 66.720 35.167,66.178 35.879,66.172 36.208 C 66.169 36.369,66.054 36.500,65.917 36.500 C 65.776 36.500,65.667 36.649,65.667 36.839 C 65.667 37.025,65.554 37.220,65.417 37.273 C 65.279 37.326,65.167 37.503,65.167 37.667 C 65.167 37.830,65.054 38.008,64.917 38.060 C 64.779 38.113,64.667 38.356,64.667 38.600 C 64.667 39.000,64.141 39.667,63.826 39.667 C 63.759 39.667,63.707 39.760,63.711 39.875 C 63.737 40.560,63.642 40.834,63.375 40.845 C 63.127 40.855,63.134 40.877,63.417 40.991 C 63.843 41.162,64.013 41.062,63.881 40.717 C 63.811 40.536,63.841 40.485,63.972 40.566 C 64.079 40.632,64.167 40.607,64.167 40.510 C 64.167 40.413,64.284 40.333,64.427 40.333 C 64.569 40.333,64.642 40.405,64.588 40.492 C 64.448 40.719,65.019 41.333,65.370 41.333 C 65.533 41.333,65.667 41.221,65.667 41.083 C 65.667 40.946,65.798 40.832,65.958 40.831 C 66.186 40.829,66.200 40.797,66.024 40.685 C 65.874 40.590,65.857 40.505,65.975 40.432 C 66.072 40.372,66.110 40.213,66.058 40.078 C 66.000 39.925,66.065 39.833,66.232 39.833 C 66.408 39.833,66.500 39.688,66.500 39.411 C 66.500 39.179,66.612 38.946,66.750 38.894 C 66.887 38.841,67.000 38.693,67.000 38.566 C 67.000 38.438,67.074 38.333,67.163 38.333 C 67.253 38.333,67.374 38.146,67.432 37.917 C 67.489 37.687,67.641 37.500,67.768 37.500 C 67.915 37.500,68.000 37.316,68.000 37.000 C 68.000 36.667,68.083 36.500,68.250 36.500 C 68.417 36.500,68.500 36.333,68.500 36.000 C 68.500 35.667,68.583 35.500,68.750 35.500 C 68.887 35.500,69.000 35.396,69.000 35.268 C 69.000 35.140,69.112 34.992,69.250 34.940 C 69.387 34.887,69.500 34.703,69.500 34.530 C 69.500 34.358,69.725 34.044,70.000 33.833 C 70.275 33.623,70.500 33.307,70.500 33.132 C 70.500 32.957,70.575 32.860,70.667 32.917 C 70.758 32.973,70.833 32.905,70.833 32.766 C 70.833 32.626,71.058 32.281,71.333 32.000 C 71.608 31.719,71.833 31.454,71.833 31.411 C 71.833 31.263,72.501 30.667,72.667 30.667 C 72.758 30.667,72.833 30.519,72.833 30.339 C 72.833 30.006,73.877 28.833,74.172 28.833 C 74.261 28.833,74.333 28.759,74.333 28.669 C 74.333 28.578,74.788 28.053,75.345 27.502 C 75.901 26.951,76.295 26.495,76.220 26.489 C 76.145 26.484,76.257 26.409,76.469 26.324 C 76.681 26.239,76.808 26.094,76.751 26.001 C 76.694 25.909,76.764 25.833,76.907 25.833 C 77.050 25.833,77.167 25.721,77.167 25.583 C 77.167 25.446,77.279 25.333,77.417 25.333 C 77.554 25.333,77.667 25.216,77.667 25.073 C 77.667 24.931,77.727 24.851,77.802 24.897 C 77.876 24.943,78.119 24.760,78.341 24.490 C 78.564 24.221,78.841 24.000,78.957 24.000 C 79.072 24.000,79.167 23.925,79.167 23.833 C 79.167 23.617,79.784 23.000,80.000 23.000 C 80.092 23.000,80.167 22.887,80.167 22.750 C 80.167 22.613,80.298 22.500,80.458 22.500 C 80.797 22.500,82.000 21.480,82.000 21.194 C 82.000 21.087,82.112 21.000,82.250 21.000 C 82.387 21.000,82.500 20.887,82.500 20.750 C 82.500 20.583,82.667 20.500,83.000 20.500 C 83.333 20.500,83.500 20.417,83.500 20.250 C 83.500 20.112,83.612 20.000,83.750 20.000 C 83.887 20.000,84.000 19.925,84.000 19.833 C 84.000 19.742,84.101 19.667,84.224 19.667 C 84.422 19.667,84.648 19.514,85.451 18.836 C 85.562 18.743,85.771 18.667,85.915 18.667 C 86.059 18.667,86.220 18.554,86.273 18.417 C 86.326 18.279,86.465 18.167,86.583 18.167 C 86.701 18.167,86.841 18.054,86.894 17.917 C 86.946 17.779,87.179 17.667,87.411 17.667 C 87.675 17.667,87.833 17.573,87.833 17.417 C 87.833 17.279,87.946 17.167,88.083 17.167 C 88.221 17.167,88.333 17.054,88.333 16.917 C 88.333 16.750,88.500 16.667,88.833 16.667 C 89.167 16.667,89.333 16.583,89.333 16.417 C 89.333 16.250,89.500 16.167,89.833 16.167 C 90.167 16.167,90.333 16.083,90.333 15.917 C 90.333 15.750,90.500 15.667,90.833 15.667 C 91.167 15.667,91.333 15.583,91.333 15.417 C 91.333 15.250,91.500 15.167,91.833 15.167 C 92.108 15.167,92.333 15.092,92.333 15.000 C 92.333 14.908,92.521 14.833,92.750 14.833 C 92.994 14.833,93.167 14.738,93.167 14.602 C 93.167 14.456,93.442 14.330,93.917 14.259 C 94.329 14.197,94.667 14.076,94.667 13.990 C 94.667 13.904,94.857 13.833,95.089 13.833 C 95.321 13.833,95.554 13.721,95.606 13.583 C 95.669 13.420,95.929 13.333,96.356 13.333 C 96.784 13.333,97.044 13.247,97.106 13.083 C 97.175 12.904,97.456 12.833,98.101 12.833 C 98.789 12.833,99.000 12.775,99.000 12.583 C 99.000 12.381,99.269 12.333,100.417 12.333 C 101.565 12.333,101.833 12.286,101.833 12.083 C 101.833 11.889,102.054 11.833,102.816 11.833 C 103.535 11.833,103.823 11.900,103.894 12.083 C 103.963 12.263,104.244 12.333,104.894 12.333 C 105.543 12.333,105.825 12.404,105.894 12.583 C 105.946 12.721,106.179 12.833,106.411 12.833 C 106.675 12.833,106.833 12.927,106.833 13.083 C 106.833 13.221,106.946 13.333,107.083 13.333 C 107.221 13.333,107.333 13.446,107.333 13.583 C 107.333 13.721,107.446 13.833,107.583 13.833 C 107.721 13.833,107.833 13.950,107.833 14.093 C 107.833 14.236,107.908 14.307,108.000 14.250 C 108.092 14.193,108.167 14.266,108.167 14.412 C 108.167 14.558,108.279 14.720,108.417 14.773 C 108.554 14.826,108.667 15.048,108.667 15.268 C 108.667 15.511,108.764 15.667,108.917 15.667 C 109.102 15.667,109.167 15.861,109.167 16.417 C 109.167 16.972,109.231 17.167,109.417 17.167 C 109.629 17.167,109.667 17.602,109.667 20.083 C 109.667 22.565,109.629 23.000,109.417 23.000 C 109.219 23.000,109.167 23.239,109.167 24.149 C 109.167 25.016,109.105 25.321,108.917 25.394 C 108.758 25.454,108.667 25.710,108.667 26.090 C 108.667 26.420,108.554 26.803,108.417 26.940 C 108.279 27.078,108.167 27.448,108.167 27.762 C 108.167 28.076,108.092 28.333,108.000 28.333 C 107.908 28.333,107.833 28.590,107.833 28.905 C 107.833 29.219,107.721 29.589,107.583 29.726 C 107.446 29.864,107.333 30.134,107.333 30.327 C 107.333 30.519,107.221 30.720,107.083 30.773 C 106.920 30.836,106.833 31.095,106.833 31.518 C 106.833 31.983,106.763 32.167,106.583 32.167 C 106.417 32.167,106.333 32.333,106.333 32.667 C 106.333 33.000,106.250 33.167,106.083 33.167 C 105.917 33.167,105.833 33.333,105.833 33.667 C 105.833 34.000,105.750 34.167,105.583 34.167 C 105.417 34.167,105.333 34.333,105.333 34.667 C 105.333 35.000,105.250 35.167,105.083 35.167 C 104.931 35.167,104.833 35.322,104.833 35.566 C 104.833 35.785,104.721 36.008,104.583 36.060 C 104.446 36.113,104.333 36.346,104.333 36.578 C 104.333 36.842,104.240 37.000,104.083 37.000 C 103.946 37.000,103.833 37.080,103.833 37.179 C 103.833 37.277,103.721 37.470,103.583 37.607 C 103.446 37.745,103.333 38.002,103.333 38.179 C 103.333 38.355,103.264 38.500,103.180 38.500 C 103.096 38.500,102.977 38.725,102.917 39.000 C 102.856 39.275,102.738 39.500,102.653 39.500 C 102.569 39.500,102.500 39.604,102.500 39.732 C 102.500 39.860,102.388 40.008,102.250 40.060 C 102.112 40.113,102.000 40.301,102.000 40.477 C 102.000 40.653,101.888 40.841,101.750 40.894 C 101.612 40.946,101.500 41.109,101.500 41.255 C 101.500 41.400,101.424 41.473,101.331 41.415 C 101.238 41.358,101.117 41.538,101.061 41.822 C 101.004 42.103,100.855 42.333,100.729 42.333 C 100.603 42.333,100.500 42.437,100.500 42.563 C 100.500 42.689,100.388 42.886,100.250 43.000 C 100.112 43.114,100.000 43.348,100.000 43.520 C 100.000 43.693,99.888 43.833,99.750 43.833 C 99.612 43.833,99.500 43.912,99.500 44.008 C 99.500 44.104,99.298 44.370,99.050 44.599 C 98.803 44.829,98.585 45.120,98.567 45.248 C 98.548 45.375,98.338 45.690,98.100 45.946 C 97.861 46.203,97.667 46.508,97.667 46.623 C 97.667 46.739,97.573 46.815,97.458 46.792 C 97.341 46.768,97.227 46.951,97.197 47.208 C 97.167 47.471,97.042 47.667,96.906 47.667 C 96.774 47.667,96.667 47.779,96.667 47.917 C 96.667 48.054,96.554 48.167,96.417 48.167 C 96.279 48.167,96.167 48.279,96.167 48.417 C 96.167 48.554,96.054 48.667,95.917 48.667 C 95.779 48.667,95.667 48.779,95.667 48.917 C 95.667 49.054,95.554 49.167,95.417 49.167 C 95.279 49.167,95.167 49.279,95.167 49.417 C 95.167 49.554,95.050 49.667,94.907 49.667 C 94.764 49.667,94.685 49.728,94.732 49.804 C 94.778 49.879,94.670 50.066,94.491 50.219 C 94.313 50.372,94.167 50.610,94.167 50.748 C 94.167 50.887,94.054 51.000,93.917 51.000 C 93.779 51.000,93.667 51.112,93.667 51.250 C 93.667 51.387,93.554 51.500,93.417 51.500 C 93.279 51.500,93.167 51.585,93.167 51.689 C 93.167 51.793,92.979 52.052,92.750 52.265 C 92.521 52.477,92.333 52.729,92.333 52.825 C 92.333 52.921,92.221 53.000,92.083 53.000 C 91.946 53.000,91.833 53.112,91.833 53.250 C 91.833 53.387,91.721 53.500,91.583 53.500 C 91.446 53.500,91.333 53.612,91.333 53.750 C 91.333 53.887,91.221 54.000,91.083 54.000 C 90.946 54.000,90.833 54.112,90.833 54.250 C 90.833 54.387,90.721 54.500,90.583 54.500 C 90.446 54.500,90.333 54.612,90.333 54.750 C 90.333 54.887,90.221 55.000,90.083 55.000 C 89.946 55.000,89.833 55.112,89.833 55.250 C 89.833 55.387,89.721 55.500,89.583 55.500 C 89.446 55.500,89.333 55.575,89.333 55.667 C 89.333 55.758,89.213 55.833,89.066 55.833 C 88.896 55.833,88.833 55.925,88.894 56.083 C 88.960 56.255,88.883 56.333,88.650 56.333 C 88.457 56.333,87.885 56.763,87.320 57.333 C 86.775 57.883,86.255 58.333,86.165 58.333 C 86.074 58.333,86.000 58.438,86.000 58.565 C 86.000 58.693,85.825 58.841,85.612 58.895 C 85.399 58.948,85.020 59.181,84.770 59.413 C 84.520 59.644,84.245 59.833,84.158 59.833 C 84.071 59.833,84.019 59.927,84.042 60.042 C 84.065 60.158,83.885 60.273,83.634 60.302 C 83.336 60.336,83.214 60.430,83.272 60.581 C 83.360 60.811,82.726 61.270,82.417 61.200 C 82.325 61.179,82.419 61.306,82.625 61.483 C 82.835 61.662,83.000 61.994,83.000 62.235 C 83.000 62.508,83.092 62.667,83.250 62.667 C 83.387 62.667,83.500 62.779,83.500 62.917 C 83.500 63.054,83.612 63.167,83.750 63.167 C 83.887 63.167,84.000 63.279,84.000 63.417 C 84.000 63.554,84.112 63.667,84.250 63.667 C 84.387 63.667,84.500 63.779,84.500 63.917 C 84.500 64.054,84.612 64.167,84.750 64.167 C 84.887 64.167,85.000 64.279,85.000 64.417 C 85.000 64.554,85.112 64.667,85.250 64.667 C 85.388 64.667,85.500 64.779,85.500 64.917 C 85.500 65.054,85.612 65.167,85.750 65.167 C 85.888 65.167,86.000 65.279,86.000 65.417 C 86.000 65.554,86.112 65.667,86.250 65.667 C 86.388 65.667,86.500 65.784,86.500 65.927 C 86.500 66.069,86.559 66.150,86.632 66.105 C 86.705 66.060,86.775 66.166,86.788 66.342 C 86.801 66.517,86.729 66.711,86.628 66.774 C 86.509 66.848,86.481 66.790,86.550 66.611 C 86.608 66.458,86.590 66.333,86.509 66.333 C 86.309 66.333,86.204 66.685,86.297 67.042 C 86.388 67.394,86.833 67.433,86.833 67.089 C 86.833 66.929,86.930 66.881,87.111 66.950 C 87.283 67.017,87.347 66.990,87.279 66.881 C 87.219 66.784,87.282 66.612,87.419 66.498 C 87.555 66.385,87.667 66.345,87.667 66.408 C 87.667 66.472,87.785 66.406,87.929 66.262 C 88.073 66.118,88.295 66.000,88.423 66.000 C 88.572 66.000,88.618 65.900,88.550 65.723 C 88.478 65.537,88.507 65.485,88.638 65.565 C 88.747 65.633,88.995 65.511,89.208 65.283 C 89.414 65.062,89.837 64.739,90.147 64.566 C 91.256 63.944,91.414 63.838,91.250 63.825 C 91.158 63.818,91.257 63.743,91.469 63.658 C 91.681 63.572,91.808 63.427,91.751 63.335 C 91.694 63.242,91.764 63.167,91.907 63.167 C 92.050 63.167,92.167 63.092,92.167 63.000 C 92.167 62.748,92.774 62.192,93.113 62.134 C 93.278 62.106,93.588 61.877,93.804 61.625 C 94.020 61.373,94.310 61.167,94.449 61.167 C 94.606 61.167,94.666 61.071,94.606 60.917 C 94.554 60.779,94.581 60.667,94.668 60.667 C 94.755 60.667,95.258 60.235,95.785 59.708 C 96.312 59.181,96.802 58.769,96.872 58.792 C 96.942 58.815,97.000 58.748,97.000 58.645 C 97.000 58.424,98.118 57.333,98.345 57.333 C 98.430 57.333,98.500 57.221,98.500 57.083 C 98.500 56.946,98.612 56.833,98.750 56.833 C 98.888 56.833,99.000 56.723,99.000 56.588 C 99.000 56.454,99.225 56.177,99.500 55.974 C 99.805 55.748,100.000 55.454,100.000 55.219 C 100.000 55.007,100.081 54.833,100.180 54.833 C 100.413 54.833,101.930 53.314,101.875 53.136 C 101.852 53.061,101.946 53.000,102.083 53.000 C 102.221 53.000,102.333 52.885,102.333 52.745 C 102.333 52.604,102.446 52.446,102.583 52.394 C 102.721 52.341,102.833 52.118,102.833 51.899 C 102.833 51.655,102.931 51.500,103.083 51.500 C 103.221 51.500,103.333 51.387,103.333 51.250 C 103.333 51.112,103.446 51.000,103.583 51.000 C 103.721 51.000,103.833 50.887,103.833 50.750 C 103.833 50.612,103.946 50.500,104.083 50.500 C 104.221 50.500,104.333 50.387,104.333 50.250 C 104.333 50.112,104.446 50.000,104.583 50.000 C 104.721 50.000,104.833 49.854,104.833 49.675 C 104.833 49.496,105.171 48.993,105.583 48.556 C 105.996 48.120,106.333 47.662,106.333 47.540 C 106.333 47.418,106.509 47.152,106.724 46.950 C 106.939 46.749,107.165 46.377,107.227 46.125 C 107.289 45.873,107.413 45.667,107.503 45.667 C 107.593 45.667,107.667 45.554,107.667 45.417 C 107.667 45.279,107.779 45.167,107.917 45.167 C 108.066 45.167,108.167 45.013,108.167 44.784 C 108.167 44.563,108.375 44.228,108.660 43.992 C 108.931 43.767,109.156 43.415,109.160 43.208 C 109.164 42.989,109.271 42.833,109.417 42.833 C 109.583 42.833,109.667 42.667,109.667 42.333 C 109.667 42.000,109.750 41.833,109.917 41.833 C 110.083 41.833,110.167 41.667,110.167 41.333 C 110.167 41.000,110.250 40.833,110.417 40.833 C 110.554 40.833,110.667 40.729,110.667 40.601 C 110.667 40.473,110.784 40.324,110.927 40.269 C 111.071 40.214,111.143 40.096,111.088 40.007 C 111.033 39.918,111.141 39.693,111.327 39.506 C 111.514 39.319,111.667 39.025,111.667 38.851 C 111.667 38.678,111.779 38.492,111.917 38.440 C 112.054 38.387,112.167 38.186,112.167 37.993 C 112.167 37.801,112.279 37.530,112.417 37.393 C 112.554 37.255,112.667 36.998,112.667 36.821 C 112.667 36.645,112.742 36.500,112.833 36.500 C 112.925 36.500,113.000 36.275,113.000 36.000 C 113.000 35.667,113.083 35.500,113.250 35.500 C 113.406 35.500,113.500 35.342,113.500 35.078 C 113.500 34.846,113.612 34.613,113.750 34.560 C 113.913 34.498,114.000 34.238,114.000 33.816 C 114.000 33.350,114.071 33.167,114.250 33.167 C 114.417 33.167,114.500 33.000,114.500 32.667 C 114.500 32.333,114.583 32.167,114.750 32.167 C 114.935 32.167,115.000 31.972,115.000 31.417 C 115.000 30.861,115.065 30.667,115.250 30.667 C 115.429 30.667,115.500 30.483,115.500 30.018 C 115.500 29.595,115.587 29.336,115.750 29.273 C 115.913 29.210,116.000 28.951,116.000 28.523 C 116.000 28.095,116.087 27.836,116.250 27.773 C 116.431 27.704,116.500 27.421,116.500 26.755 C 116.500 26.047,116.558 25.833,116.750 25.833 C 116.940 25.833,117.001 25.623,117.005 24.958 C 117.008 24.455,117.114 23.946,117.255 23.760 C 117.624 23.272,117.619 14.535,117.250 14.394 C 117.080 14.328,117.000 14.063,117.000 13.566 C 117.000 13.026,116.934 12.833,116.750 12.833 C 116.570 12.833,116.500 12.649,116.500 12.175 C 116.500 11.754,116.407 11.465,116.242 11.372 C 116.100 11.293,115.972 11.064,115.956 10.864 C 115.941 10.664,115.833 10.500,115.715 10.500 C 115.597 10.500,115.500 10.387,115.500 10.250 C 115.500 10.112,115.388 10.000,115.250 10.000 C 115.112 10.000,115.000 9.887,115.000 9.750 C 115.000 9.612,114.888 9.500,114.750 9.500 C 114.612 9.500,114.500 9.387,114.500 9.250 C 114.500 9.112,114.388 9.000,114.250 9.000 C 114.112 9.000,114.000 8.887,114.000 8.750 C 114.000 8.612,113.888 8.500,113.750 8.500 C 113.612 8.500,113.500 8.387,113.500 8.250 C 113.500 8.112,113.388 8.000,113.250 8.000 C 113.112 8.000,113.000 7.888,113.000 7.750 C 113.000 7.597,112.845 7.500,112.601 7.500 C 112.382 7.500,112.159 7.388,112.106 7.250 C 112.054 7.112,111.829 7.000,111.606 7.000 C 111.384 7.000,111.159 6.888,111.106 6.750 C 111.037 6.570,110.756 6.500,110.106 6.500 C 109.457 6.500,109.175 6.430,109.106 6.250 C 109.026 6.041,108.523 6.000,106.005 6.000 C 103.445 6.000,103.000 6.037,103.000 6.250 M64.596 42.889 C 64.643 43.011,64.783 43.111,64.908 43.111 C 65.033 43.111,65.097 43.011,65.050 42.889 C 65.003 42.767,64.862 42.667,64.737 42.667 C 64.613 42.667,64.549 42.767,64.596 42.889 M81.500 61.803 C 81.171 61.953,81.120 62.278,81.426 62.278 C 81.558 62.278,81.630 62.241,81.585 62.196 C 81.540 62.151,81.586 62.013,81.689 61.890 C 81.892 61.645,81.871 61.635,81.500 61.803 " stroke="none" fill="#43ad99" fill-rule="evenodd"></path><path id="path1" d="M66.564 39.074 C 66.513 39.206,66.507 39.449,66.550 39.615 C 66.603 39.818,66.634 39.772,66.647 39.472 C 66.658 39.228,66.760 38.990,66.875 38.944 C 67.038 38.878,67.037 38.857,66.870 38.846 C 66.752 38.839,66.615 38.941,66.564 39.074 M63.278 40.444 C 63.086 40.636,63.156 40.833,63.417 40.833 C 63.554 40.833,63.667 40.721,63.667 40.583 C 63.667 40.323,63.470 40.253,63.278 40.444 M64.167 40.510 C 64.167 40.607,64.087 40.637,63.989 40.576 C 63.882 40.510,63.832 40.590,63.864 40.775 C 63.905 41.014,63.823 41.075,63.500 41.046 C 63.271 41.025,63.180 41.051,63.299 41.104 C 63.550 41.215,63.259 41.668,62.938 41.664 C 62.835 41.663,62.862 41.582,63.000 41.485 C 63.222 41.328,63.222 41.315,63.000 41.375 C 62.862 41.412,62.726 41.647,62.696 41.898 C 62.667 42.148,62.536 42.394,62.405 42.444 C 62.274 42.495,62.167 42.706,62.167 42.914 C 62.167 43.122,62.054 43.386,61.917 43.500 C 61.779 43.614,61.667 43.848,61.667 44.020 C 61.667 44.193,61.592 44.333,61.500 44.333 C 61.408 44.333,61.333 44.512,61.333 44.730 C 61.333 44.948,61.225 45.215,61.093 45.325 C 60.961 45.435,60.828 45.688,60.798 45.887 C 60.767 46.087,60.650 46.231,60.538 46.208 C 60.414 46.183,60.333 46.357,60.333 46.649 C 60.333 46.924,60.226 47.172,60.083 47.227 C 59.918 47.290,59.833 47.551,59.833 47.995 C 59.833 48.481,59.764 48.667,59.583 48.667 C 59.419 48.667,59.333 48.831,59.333 49.149 C 59.333 49.424,59.226 49.672,59.083 49.727 C 58.926 49.787,58.833 50.043,58.833 50.417 C 58.833 50.791,58.741 51.046,58.583 51.106 C 58.426 51.167,58.331 51.427,58.328 51.809 C 58.325 52.143,58.213 52.562,58.078 52.740 C 57.943 52.918,57.833 53.379,57.833 53.764 C 57.833 54.233,57.751 54.496,57.583 54.560 C 57.399 54.631,57.333 54.923,57.333 55.673 C 57.333 56.375,57.252 56.772,57.072 56.952 C 56.724 57.299,56.775 66.342,57.125 66.458 C 57.245 66.498,57.333 66.807,57.333 67.186 C 57.333 67.617,57.420 67.877,57.583 67.940 C 57.721 67.992,57.833 68.217,57.833 68.440 C 57.833 68.662,57.946 68.887,58.083 68.940 C 58.221 68.992,58.333 69.215,58.333 69.434 C 58.333 69.678,58.431 69.833,58.583 69.833 C 58.740 69.833,58.833 69.991,58.833 70.255 C 58.833 70.487,58.946 70.720,59.083 70.773 C 59.221 70.826,59.333 70.973,59.333 71.101 C 59.333 71.229,59.446 71.333,59.583 71.333 C 59.721 71.333,59.833 71.446,59.833 71.583 C 59.833 71.721,59.946 71.833,60.083 71.833 C 60.221 71.833,60.333 71.946,60.333 72.083 C 60.333 72.221,60.438 72.333,60.566 72.333 C 60.693 72.333,60.841 72.446,60.894 72.583 C 60.946 72.721,61.179 72.833,61.411 72.833 C 61.675 72.833,61.833 72.927,61.833 73.083 C 61.833 73.236,61.989 73.333,62.232 73.333 C 62.452 73.333,62.674 73.446,62.727 73.583 C 62.790 73.747,63.049 73.833,63.477 73.833 C 63.870 73.833,64.165 73.923,64.217 74.057 C 64.275 74.207,64.671 74.292,65.439 74.317 C 66.064 74.337,66.618 74.421,66.669 74.504 C 66.814 74.739,69.885 74.762,69.963 74.528 C 70.005 74.403,70.466 74.333,71.252 74.333 C 72.118 74.333,72.549 74.260,72.726 74.083 C 72.883 73.926,73.293 73.833,73.827 73.833 C 74.429 73.833,74.705 73.760,74.773 73.583 C 74.832 73.428,75.086 73.333,75.440 73.333 C 75.793 73.333,76.047 73.238,76.106 73.083 C 76.161 72.941,76.410 72.833,76.684 72.833 C 77.002 72.833,77.167 72.748,77.167 72.583 C 77.167 72.402,77.352 72.333,77.839 72.333 C 78.282 72.333,78.543 72.248,78.606 72.083 C 78.659 71.946,78.884 71.833,79.106 71.833 C 79.329 71.833,79.554 71.721,79.606 71.583 C 79.659 71.446,79.878 71.333,80.093 71.333 C 80.308 71.333,80.548 71.217,80.628 71.075 C 80.707 70.933,80.936 70.805,81.136 70.790 C 81.336 70.775,81.500 70.666,81.500 70.548 C 81.500 70.430,81.612 70.333,81.750 70.333 C 81.887 70.333,82.000 70.221,82.000 70.083 C 82.000 69.916,82.168 69.833,82.510 69.833 C 82.790 69.833,82.979 69.767,82.929 69.687 C 82.879 69.606,83.073 69.494,83.359 69.437 C 83.645 69.379,84.054 69.129,84.268 68.879 C 84.482 68.630,84.829 68.424,85.037 68.421 C 85.282 68.418,85.410 68.321,85.397 68.146 C 85.384 67.961,85.475 67.902,85.689 67.957 C 85.898 68.012,86.000 67.950,86.000 67.769 C 86.000 67.591,86.155 67.493,86.458 67.481 C 86.710 67.470,86.793 67.429,86.642 67.388 C 86.217 67.276,86.098 66.333,86.509 66.333 C 86.590 66.333,86.608 66.458,86.550 66.611 C 86.481 66.790,86.509 66.848,86.628 66.774 C 86.729 66.711,86.801 66.517,86.788 66.342 C 86.775 66.166,86.705 66.060,86.632 66.105 C 86.559 66.150,86.500 66.069,86.500 65.927 C 86.500 65.784,86.388 65.667,86.250 65.667 C 86.112 65.667,86.000 65.554,86.000 65.417 C 86.000 65.279,85.888 65.167,85.750 65.167 C 85.612 65.167,85.500 65.054,85.500 64.917 C 85.500 64.779,85.388 64.667,85.250 64.667 C 85.112 64.667,85.000 64.554,85.000 64.417 C 85.000 64.279,84.887 64.167,84.750 64.167 C 84.612 64.167,84.500 64.054,84.500 63.917 C 84.500 63.779,84.387 63.667,84.250 63.667 C 84.112 63.667,84.000 63.554,84.000 63.417 C 84.000 63.279,83.887 63.167,83.750 63.167 C 83.612 63.167,83.500 63.054,83.500 62.917 C 83.500 62.779,83.387 62.667,83.250 62.667 C 83.090 62.667,82.998 62.502,82.995 62.208 C 82.991 61.917,82.840 61.641,82.578 61.451 C 82.179 61.160,82.167 61.161,82.167 61.478 C 82.167 61.748,82.074 61.793,81.625 61.739 C 81.325 61.702,81.195 61.727,81.333 61.795 C 81.659 61.954,81.714 62.278,81.415 62.278 C 81.286 62.278,81.228 62.197,81.284 62.097 C 81.341 61.998,81.175 62.104,80.917 62.333 C 80.658 62.563,80.497 62.661,80.559 62.553 C 80.621 62.445,80.600 62.312,80.511 62.257 C 80.423 62.202,80.268 62.312,80.167 62.500 C 80.066 62.688,79.912 62.799,79.825 62.745 C 79.738 62.691,79.667 62.764,79.667 62.907 C 79.667 63.074,79.516 63.167,79.245 63.167 C 79.013 63.167,78.780 63.279,78.727 63.417 C 78.674 63.554,78.449 63.667,78.227 63.667 C 78.005 63.667,77.780 63.779,77.727 63.917 C 77.674 64.054,77.452 64.167,77.232 64.167 C 76.989 64.167,76.833 64.264,76.833 64.417 C 76.833 64.627,76.617 64.697,76.077 64.661 C 76.028 64.657,75.873 64.770,75.732 64.911 C 75.591 65.051,75.332 65.167,75.155 65.167 C 74.978 65.167,74.833 65.242,74.833 65.333 C 74.833 65.425,74.623 65.500,74.365 65.500 C 74.108 65.500,73.751 65.610,73.574 65.745 C 73.396 65.879,72.969 65.992,72.625 65.995 C 72.183 65.998,72.000 66.073,72.000 66.250 C 72.000 66.453,71.731 66.500,70.578 66.500 C 69.468 66.500,69.135 66.555,69.060 66.750 C 69.007 66.889,68.759 67.000,68.500 67.000 C 68.241 67.000,67.993 66.889,67.940 66.750 C 67.868 66.564,67.571 66.500,66.773 66.500 C 65.975 66.500,65.678 66.436,65.606 66.250 C 65.554 66.112,65.355 66.000,65.164 66.000 C 64.973 66.000,64.644 65.813,64.431 65.583 C 64.219 65.354,63.960 65.167,63.856 65.167 C 63.752 65.167,63.667 65.054,63.667 64.917 C 63.667 64.779,63.554 64.667,63.417 64.667 C 63.260 64.667,63.167 64.509,63.167 64.245 C 63.167 64.013,63.054 63.780,62.917 63.727 C 62.779 63.674,62.667 63.449,62.667 63.227 C 62.667 63.005,62.554 62.780,62.417 62.727 C 62.255 62.665,62.167 62.407,62.167 62.000 C 62.167 61.593,62.078 61.335,61.917 61.273 C 61.704 61.191,61.667 60.569,61.667 57.089 C 61.667 53.565,61.701 53.000,61.917 53.000 C 62.117 53.000,62.167 52.750,62.167 51.750 C 62.167 50.750,62.217 50.500,62.417 50.500 C 62.609 50.500,62.667 50.287,62.667 49.583 C 62.667 48.880,62.725 48.667,62.917 48.667 C 63.106 48.667,63.167 48.461,63.167 47.816 C 63.167 47.165,63.220 46.985,63.394 47.051 C 63.530 47.104,63.621 47.027,63.621 46.861 C 63.621 45.921,63.685 45.667,63.922 45.667 C 64.110 45.667,64.167 45.513,64.138 45.085 C 64.111 44.678,64.192 44.435,64.408 44.277 C 64.578 44.152,64.670 43.974,64.612 43.880 C 64.554 43.786,64.656 43.538,64.838 43.328 C 65.062 43.069,65.149 42.772,65.109 42.402 C 65.033 41.718,65.255 41.298,65.497 41.667 C 65.638 41.881,65.662 41.875,65.664 41.625 C 65.666 41.456,65.542 41.333,65.370 41.333 C 65.019 41.333,64.448 40.719,64.588 40.492 C 64.642 40.405,64.569 40.333,64.427 40.333 C 64.284 40.333,64.167 40.413,64.167 40.510 M65.000 42.823 C 65.000 43.103,64.704 43.172,64.606 42.916 C 64.548 42.764,64.607 42.667,64.755 42.667 C 64.890 42.667,65.000 42.737,65.000 42.823 M82.875 60.703 C 82.669 60.803,82.500 60.987,82.500 61.113 C 82.500 61.294,82.586 61.285,82.917 61.068 C 83.146 60.918,83.333 60.729,83.333 60.647 C 83.333 60.475,83.354 60.472,82.875 60.703 M88.000 66.167 C 87.868 66.248,87.815 66.371,87.883 66.438 C 87.950 66.506,88.093 66.474,88.200 66.367 C 88.452 66.115,88.311 65.974,88.000 66.167 " stroke="none" fill="#24765c" fill-rule="evenodd"></path><path id="path2" d="M126.667 13.833 L 126.667 17.667 150.417 17.667 C 171.417 17.667,174.167 17.696,174.167 17.917 C 174.167 18.054,174.054 18.167,173.917 18.167 C 173.779 18.167,173.667 18.279,173.667 18.417 C 173.667 18.554,173.554 18.667,173.417 18.667 C 173.279 18.667,173.167 18.779,173.167 18.917 C 173.167 19.054,173.054 19.167,172.917 19.167 C 172.779 19.167,172.667 19.279,172.667 19.417 C 172.667 19.583,172.500 19.667,172.167 19.667 C 171.833 19.667,171.667 19.750,171.667 19.917 C 171.667 20.054,171.582 20.167,171.477 20.167 C 171.373 20.167,171.114 20.354,170.902 20.583 C 170.690 20.813,170.437 21.000,170.341 21.000 C 170.245 21.000,170.167 21.112,170.167 21.250 C 170.167 21.406,170.009 21.500,169.750 21.500 C 169.491 21.500,169.333 21.594,169.333 21.750 C 169.333 21.887,169.221 22.000,169.083 22.000 C 168.946 22.000,168.833 22.113,168.833 22.250 C 168.833 22.387,168.721 22.500,168.583 22.500 C 168.446 22.500,168.333 22.613,168.333 22.750 C 168.333 22.887,168.221 23.000,168.083 23.000 C 167.946 23.000,167.833 23.113,167.833 23.250 C 167.833 23.417,167.667 23.500,167.333 23.500 C 167.000 23.500,166.833 23.583,166.833 23.750 C 166.833 23.887,166.721 24.000,166.583 24.000 C 166.446 24.000,166.333 24.113,166.333 24.250 C 166.333 24.387,166.221 24.500,166.083 24.500 C 165.946 24.500,165.833 24.613,165.833 24.750 C 165.833 24.887,165.721 25.000,165.583 25.000 C 165.446 25.000,165.333 25.067,165.333 25.149 C 165.333 25.230,165.146 25.344,164.917 25.402 C 164.688 25.459,164.500 25.580,164.500 25.670 C 164.500 25.760,164.387 25.833,164.250 25.833 C 164.112 25.833,164.000 25.946,164.000 26.083 C 164.000 26.221,163.887 26.333,163.750 26.333 C 163.612 26.333,163.500 26.446,163.500 26.583 C 163.500 26.721,163.387 26.833,163.250 26.833 C 163.112 26.833,163.000 26.946,163.000 27.083 C 163.000 27.250,162.833 27.333,162.500 27.333 C 162.167 27.333,162.000 27.417,162.000 27.583 C 162.000 27.721,161.887 27.833,161.750 27.833 C 161.612 27.833,161.500 27.946,161.500 28.083 C 161.500 28.221,161.387 28.333,161.250 28.333 C 161.112 28.333,161.000 28.446,161.000 28.583 C 161.000 28.721,160.887 28.833,160.750 28.833 C 160.612 28.833,160.500 28.946,160.500 29.083 C 160.500 29.222,160.352 29.333,160.167 29.333 C 159.983 29.333,159.533 29.633,159.167 30.000 C 158.800 30.367,158.425 30.667,158.333 30.667 C 158.242 30.667,158.167 30.779,158.167 30.917 C 158.167 31.073,158.009 31.167,157.745 31.167 C 157.513 31.167,157.280 31.279,157.227 31.417 C 157.174 31.554,157.027 31.667,156.899 31.667 C 156.771 31.667,156.667 31.779,156.667 31.917 C 156.667 32.054,156.554 32.167,156.417 32.167 C 156.279 32.167,156.167 32.279,156.167 32.417 C 156.167 32.554,156.054 32.667,155.917 32.667 C 155.779 32.667,155.667 32.779,155.667 32.917 C 155.667 33.061,155.516 33.167,155.309 33.167 C 154.947 33.167,153.833 34.167,153.833 34.492 C 153.833 34.588,153.721 34.667,153.583 34.667 C 153.446 34.667,153.333 34.734,153.333 34.815 C 153.333 34.897,153.131 35.015,152.883 35.077 C 152.636 35.139,152.265 35.372,152.058 35.595 C 151.852 35.818,151.604 36.000,151.508 36.000 C 151.412 36.000,151.333 36.112,151.333 36.250 C 151.333 36.387,151.221 36.500,151.083 36.500 C 150.946 36.500,150.833 36.612,150.833 36.750 C 150.833 36.894,150.683 37.000,150.478 37.000 C 150.117 37.000,148.500 38.491,148.500 38.824 C 148.500 38.921,148.275 39.000,148.000 39.000 C 147.667 39.000,147.500 39.083,147.500 39.250 C 147.500 39.387,147.387 39.500,147.250 39.500 C 147.112 39.500,147.000 39.612,147.000 39.750 C 147.000 39.887,146.887 40.000,146.750 40.000 C 146.612 40.000,146.500 40.075,146.500 40.167 C 146.500 40.258,146.387 40.333,146.250 40.333 C 146.112 40.333,146.000 40.446,146.000 40.583 C 146.000 40.721,145.852 40.833,145.672 40.833 C 145.323 40.833,143.667 42.330,143.667 42.646 C 143.667 42.749,143.442 42.833,143.167 42.833 C 142.833 42.833,142.667 42.917,142.667 43.083 C 142.667 43.221,142.554 43.333,142.417 43.333 C 142.279 43.333,142.167 43.446,142.167 43.583 C 142.167 43.721,142.054 43.833,141.917 43.833 C 141.779 43.833,141.667 43.946,141.667 44.083 C 141.667 44.221,141.554 44.333,141.417 44.333 C 141.279 44.333,141.167 44.446,141.167 44.583 C 141.167 44.739,141.009 44.833,140.750 44.833 C 140.468 44.833,140.035 45.130,139.409 45.750 C 138.901 46.254,138.339 46.667,138.159 46.667 C 137.980 46.667,137.833 46.779,137.833 46.917 C 137.833 47.054,137.721 47.167,137.583 47.167 C 137.446 47.167,137.333 47.279,137.333 47.417 C 137.333 47.554,137.221 47.667,137.083 47.667 C 136.946 47.667,136.833 47.779,136.833 47.917 C 136.833 48.054,136.721 48.167,136.583 48.167 C 136.446 48.167,136.333 48.279,136.333 48.417 C 136.333 48.583,136.167 48.667,135.833 48.667 C 135.500 48.667,135.333 48.750,135.333 48.917 C 135.333 49.054,135.221 49.167,135.083 49.167 C 134.946 49.167,134.833 49.279,134.833 49.417 C 134.833 49.554,134.748 49.667,134.644 49.667 C 134.540 49.667,134.289 49.845,134.087 50.064 C 133.884 50.282,133.557 50.512,133.359 50.575 C 133.162 50.638,133.000 50.759,133.000 50.845 C 133.000 50.930,132.887 51.000,132.750 51.000 C 132.612 51.000,132.500 51.112,132.500 51.250 C 132.500 51.387,132.387 51.500,132.250 51.500 C 132.112 51.500,132.000 51.612,132.000 51.750 C 132.000 51.887,131.887 52.000,131.750 52.000 C 131.612 52.000,131.500 52.112,131.500 52.250 C 131.500 52.406,131.342 52.500,131.078 52.500 C 130.846 52.500,130.613 52.612,130.560 52.750 C 130.508 52.887,130.360 53.000,130.232 53.000 C 130.104 53.000,130.000 53.112,130.000 53.250 C 130.000 53.387,129.887 53.500,129.750 53.500 C 129.612 53.500,129.500 53.612,129.500 53.750 C 129.500 53.887,129.387 54.000,129.250 54.000 C 129.112 54.000,129.000 54.112,129.000 54.250 C 129.000 54.406,128.843 54.500,128.583 54.500 C 128.324 54.500,128.167 54.594,128.167 54.750 C 128.167 54.887,128.054 55.000,127.917 55.000 C 127.779 55.000,127.667 55.075,127.667 55.167 C 127.667 55.258,127.554 55.333,127.417 55.333 C 127.279 55.333,127.167 55.446,127.167 55.583 C 127.167 55.721,127.054 55.833,126.917 55.833 C 126.698 55.833,126.667 56.806,126.667 63.583 L 126.667 71.333 151.833 71.333 L 177.000 71.333 177.000 67.750 L 177.000 64.167 153.000 64.167 C 131.778 64.167,129.000 64.138,129.000 63.917 C 129.000 63.779,129.112 63.667,129.250 63.667 C 129.387 63.667,129.500 63.554,129.500 63.417 C 129.500 63.279,129.612 63.167,129.750 63.167 C 129.887 63.167,130.000 63.054,130.000 62.917 C 130.000 62.760,130.158 62.667,130.422 62.667 C 130.654 62.667,130.887 62.554,130.940 62.417 C 130.992 62.279,131.140 62.167,131.268 62.167 C 131.396 62.167,131.500 62.054,131.500 61.917 C 131.500 61.779,131.612 61.667,131.750 61.667 C 131.887 61.667,132.000 61.554,132.000 61.417 C 132.000 61.279,132.112 61.167,132.250 61.167 C 132.387 61.167,132.500 61.054,132.500 60.917 C 132.500 60.761,132.657 60.667,132.917 60.667 C 133.176 60.667,133.333 60.572,133.333 60.417 C 133.333 60.279,133.446 60.167,133.583 60.167 C 133.721 60.167,133.833 60.092,133.833 60.000 C 133.833 59.908,133.946 59.833,134.083 59.833 C 134.221 59.833,134.333 59.721,134.333 59.583 C 134.333 59.446,134.446 59.333,134.583 59.333 C 134.721 59.333,134.833 59.221,134.833 59.083 C 134.833 58.927,134.991 58.833,135.255 58.833 C 135.487 58.833,135.720 58.721,135.773 58.583 C 135.826 58.446,135.973 58.333,136.101 58.333 C 136.229 58.333,136.333 58.221,136.333 58.083 C 136.333 57.946,136.446 57.833,136.583 57.833 C 136.721 57.833,136.833 57.721,136.833 57.583 C 136.833 57.446,136.946 57.333,137.083 57.333 C 137.221 57.333,137.333 57.221,137.333 57.083 C 137.333 56.928,137.491 56.833,137.750 56.833 C 138.009 56.833,138.167 56.739,138.167 56.583 C 138.167 56.446,138.279 56.333,138.417 56.333 C 138.554 56.333,138.667 56.221,138.667 56.083 C 138.667 55.946,138.779 55.833,138.917 55.833 C 139.054 55.833,139.167 55.721,139.167 55.583 C 139.167 55.446,139.279 55.333,139.417 55.333 C 139.554 55.333,139.667 55.221,139.667 55.083 C 139.667 54.924,139.827 54.833,140.106 54.833 C 140.360 54.833,140.708 54.658,140.931 54.417 C 141.144 54.188,141.396 54.000,141.492 54.000 C 141.588 54.000,141.667 53.887,141.667 53.750 C 141.667 53.612,141.779 53.500,141.917 53.500 C 142.054 53.500,142.167 53.387,142.167 53.250 C 142.167 53.094,142.324 53.000,142.583 53.000 C 142.843 53.000,143.000 52.906,143.000 52.750 C 143.000 52.612,143.096 52.500,143.213 52.500 C 143.452 52.500,144.000 51.918,144.000 51.665 C 144.000 51.574,144.112 51.500,144.250 51.500 C 144.387 51.500,144.500 51.387,144.500 51.250 C 144.500 51.083,144.667 51.000,145.000 51.000 C 145.333 51.000,145.500 50.917,145.500 50.750 C 145.500 50.612,145.612 50.500,145.750 50.500 C 145.887 50.500,146.000 50.387,146.000 50.250 C 146.000 50.112,146.112 50.000,146.250 50.000 C 146.387 50.000,146.500 49.925,146.500 49.833 C 146.500 49.742,146.612 49.667,146.750 49.667 C 146.887 49.667,147.000 49.554,147.000 49.417 C 147.000 49.279,147.131 49.167,147.292 49.167 C 147.630 49.166,148.833 48.147,148.833 47.860 C 148.833 47.754,148.946 47.667,149.083 47.667 C 149.221 47.667,149.333 47.554,149.333 47.417 C 149.333 47.250,149.500 47.167,149.833 47.167 C 150.167 47.167,150.333 47.083,150.333 46.917 C 150.333 46.779,150.446 46.667,150.583 46.667 C 150.721 46.667,150.833 46.554,150.833 46.417 C 150.833 46.279,150.946 46.167,151.083 46.167 C 151.221 46.167,151.333 46.054,151.333 45.917 C 151.333 45.779,151.446 45.667,151.583 45.667 C 151.721 45.667,151.833 45.554,151.833 45.417 C 151.833 45.264,151.989 45.167,152.233 45.167 C 152.649 45.167,154.167 43.878,154.167 43.525 C 154.167 43.420,154.357 43.333,154.589 43.333 C 154.821 43.333,155.054 43.221,155.106 43.083 C 155.159 42.946,155.307 42.833,155.434 42.833 C 155.562 42.833,155.667 42.721,155.667 42.583 C 155.667 42.446,155.779 42.333,155.917 42.333 C 156.054 42.333,156.167 42.221,156.167 42.083 C 156.167 41.946,156.279 41.833,156.417 41.833 C 156.554 41.833,156.667 41.721,156.667 41.583 C 156.667 41.427,156.825 41.333,157.089 41.333 C 157.321 41.333,157.554 41.221,157.606 41.083 C 157.659 40.946,157.807 40.833,157.934 40.833 C 158.062 40.833,158.167 40.721,158.167 40.583 C 158.167 40.446,158.279 40.333,158.417 40.333 C 158.554 40.333,158.667 40.253,158.667 40.155 C 158.667 39.874,159.045 39.567,159.543 39.442 C 159.794 39.379,160.000 39.253,160.000 39.163 C 160.000 39.074,160.112 39.000,160.250 39.000 C 160.387 39.000,160.500 38.887,160.500 38.750 C 160.500 38.612,160.612 38.500,160.750 38.500 C 160.887 38.500,161.000 38.387,161.000 38.250 C 161.000 38.112,161.112 38.000,161.250 38.000 C 161.387 38.000,161.500 37.887,161.500 37.750 C 161.500 37.594,161.658 37.500,161.922 37.500 C 162.154 37.500,162.387 37.388,162.440 37.250 C 162.492 37.113,162.640 37.000,162.768 37.000 C 162.896 37.000,163.000 36.887,163.000 36.750 C 163.000 36.612,163.112 36.500,163.250 36.500 C 163.387 36.500,163.500 36.387,163.500 36.250 C 163.500 36.112,163.612 36.000,163.750 36.000 C 163.887 36.000,164.000 35.887,164.000 35.750 C 164.000 35.594,164.157 35.500,164.417 35.500 C 164.676 35.500,164.833 35.406,164.833 35.250 C 164.833 35.112,164.946 35.000,165.083 35.000 C 165.221 35.000,165.333 34.925,165.333 34.833 C 165.333 34.742,165.446 34.667,165.583 34.667 C 165.721 34.667,165.833 34.554,165.833 34.417 C 165.833 34.279,165.946 34.167,166.083 34.167 C 166.221 34.167,166.333 34.054,166.333 33.917 C 166.333 33.760,166.491 33.667,166.755 33.667 C 166.987 33.667,167.220 33.554,167.273 33.417 C 167.326 33.279,167.473 33.167,167.601 33.167 C 167.729 33.167,167.833 33.054,167.833 32.917 C 167.833 32.779,167.946 32.667,168.083 32.667 C 168.221 32.667,168.333 32.554,168.333 32.417 C 168.333 32.279,168.446 32.167,168.583 32.167 C 168.721 32.167,168.833 32.054,168.833 31.917 C 168.833 31.761,168.991 31.667,169.250 31.667 C 169.509 31.667,169.667 31.572,169.667 31.417 C 169.667 31.279,169.779 31.167,169.917 31.167 C 170.054 31.167,170.167 31.054,170.167 30.917 C 170.167 30.779,170.279 30.667,170.417 30.667 C 170.554 30.667,170.667 30.554,170.667 30.417 C 170.667 30.279,170.779 30.167,170.917 30.167 C 171.054 30.167,171.167 30.100,171.167 30.018 C 171.167 29.936,171.369 29.819,171.617 29.757 C 171.864 29.694,172.235 29.461,172.442 29.238 C 172.648 29.016,172.896 28.833,172.992 28.833 C 173.088 28.833,173.167 28.721,173.167 28.583 C 173.167 28.446,173.279 28.333,173.417 28.333 C 173.554 28.333,173.667 28.221,173.667 28.083 C 173.667 27.928,173.824 27.833,174.083 27.833 C 174.343 27.833,174.500 27.739,174.500 27.583 C 174.500 27.446,174.612 27.333,174.750 27.333 C 174.887 27.333,175.000 27.221,175.000 27.083 C 175.000 26.946,175.112 26.833,175.250 26.833 C 175.387 26.833,175.500 26.721,175.500 26.583 C 175.500 26.446,175.612 26.333,175.750 26.333 C 175.887 26.333,176.000 26.221,176.000 26.083 C 176.000 25.917,176.167 25.833,176.500 25.833 L 177.000 25.833 177.000 17.917 L 177.000 10.000 151.833 10.000 L 126.667 10.000 126.667 13.833 M237.500 10.167 C 237.500 10.261,237.026 10.333,236.411 10.333 C 235.598 10.333,235.299 10.396,235.227 10.583 C 235.158 10.763,234.877 10.833,234.227 10.833 C 233.577 10.833,233.296 10.904,233.227 11.083 C 233.172 11.226,232.924 11.333,232.649 11.333 C 232.331 11.333,232.167 11.419,232.167 11.583 C 232.167 11.764,231.981 11.833,231.500 11.833 C 231.019 11.833,230.833 11.903,230.833 12.083 C 230.833 12.250,230.667 12.333,230.333 12.333 C 230.000 12.333,229.833 12.417,229.833 12.583 C 229.833 12.750,229.667 12.833,229.333 12.833 C 229.000 12.833,228.833 12.917,228.833 13.083 C 228.833 13.250,228.667 13.333,228.333 13.333 C 228.000 13.333,227.833 13.417,227.833 13.583 C 227.833 13.740,227.675 13.833,227.411 13.833 C 227.179 13.833,226.946 13.946,226.894 14.083 C 226.841 14.221,226.693 14.333,226.566 14.333 C 226.438 14.333,226.333 14.446,226.333 14.583 C 226.333 14.728,226.183 14.833,225.977 14.833 C 225.782 14.833,225.448 15.021,225.235 15.250 C 225.023 15.479,224.771 15.667,224.675 15.667 C 224.579 15.667,224.500 15.779,224.500 15.917 C 224.500 16.066,224.346 16.167,224.117 16.167 C 223.896 16.167,223.561 16.375,223.326 16.660 C 223.101 16.931,222.823 17.156,222.708 17.160 C 222.594 17.163,222.500 17.279,222.500 17.417 C 222.500 17.554,222.387 17.667,222.250 17.667 C 222.112 17.667,222.000 17.779,222.000 17.917 C 222.000 18.054,221.887 18.167,221.750 18.167 C 221.612 18.167,221.500 18.245,221.500 18.341 C 221.500 18.437,221.313 18.690,221.083 18.902 C 220.854 19.114,220.667 19.373,220.667 19.477 C 220.667 19.582,220.554 19.667,220.417 19.667 C 220.279 19.667,220.167 19.779,220.167 19.917 C 220.167 20.054,220.054 20.167,219.917 20.167 C 219.761 20.167,219.667 20.324,219.667 20.583 C 219.667 20.843,219.572 21.000,219.417 21.000 C 219.279 21.000,219.167 21.112,219.167 21.250 C 219.167 21.387,219.054 21.500,218.917 21.500 C 218.779 21.500,218.667 21.604,218.667 21.732 C 218.667 21.860,218.554 22.008,218.417 22.060 C 218.279 22.113,218.167 22.346,218.167 22.578 C 218.167 22.842,218.073 23.000,217.917 23.000 C 217.779 23.000,217.667 23.113,217.667 23.250 C 217.667 23.387,217.554 23.500,217.417 23.500 C 217.250 23.500,217.167 23.667,217.167 24.000 C 217.167 24.333,217.083 24.500,216.917 24.500 C 216.764 24.500,216.667 24.655,216.667 24.899 C 216.667 25.118,216.554 25.341,216.417 25.394 C 216.279 25.446,216.167 25.671,216.167 25.894 C 216.167 26.116,216.054 26.341,215.917 26.394 C 215.779 26.446,215.667 26.679,215.667 26.911 C 215.667 27.143,215.592 27.333,215.500 27.333 C 215.408 27.333,215.333 27.558,215.333 27.833 C 215.333 28.167,215.250 28.333,215.083 28.333 C 214.917 28.333,214.833 28.500,214.833 28.833 C 214.833 29.167,214.750 29.333,214.583 29.333 C 214.404 29.333,214.333 29.517,214.333 29.982 C 214.333 30.405,214.246 30.664,214.083 30.727 C 213.903 30.796,213.833 31.079,213.833 31.745 C 213.833 32.453,213.775 32.667,213.583 32.667 C 213.383 32.667,213.333 32.917,213.333 33.917 C 213.333 34.917,213.283 35.167,213.083 35.167 C 212.866 35.167,212.833 35.889,212.833 40.667 C 212.833 45.444,212.866 46.167,213.083 46.167 C 213.283 46.167,213.333 46.417,213.333 47.417 C 213.333 48.417,213.383 48.667,213.583 48.667 C 213.775 48.667,213.833 48.880,213.833 49.583 C 213.833 50.287,213.891 50.500,214.083 50.500 C 214.269 50.500,214.333 50.694,214.333 51.250 C 214.333 51.806,214.398 52.000,214.583 52.000 C 214.750 52.000,214.833 52.167,214.833 52.500 C 214.833 52.833,214.917 53.000,215.083 53.000 C 215.264 53.000,215.333 53.185,215.333 53.667 C 215.333 54.033,215.402 54.333,215.487 54.333 C 215.571 54.333,215.690 54.558,215.750 54.833 C 215.810 55.108,215.929 55.333,216.013 55.333 C 216.098 55.333,216.167 55.523,216.167 55.755 C 216.167 55.987,216.279 56.220,216.417 56.273 C 216.554 56.326,216.667 56.473,216.667 56.601 C 216.667 56.729,216.779 56.833,216.917 56.833 C 217.083 56.833,217.167 57.000,217.167 57.333 C 217.167 57.667,217.250 57.833,217.417 57.833 C 217.566 57.833,217.667 57.987,217.667 58.216 C 217.667 58.437,217.875 58.772,218.160 59.008 C 218.431 59.233,218.656 59.510,218.660 59.625 C 218.663 59.740,218.779 59.833,218.917 59.833 C 219.072 59.833,219.167 59.991,219.167 60.250 C 219.167 60.509,219.261 60.667,219.417 60.667 C 219.554 60.667,219.667 60.779,219.667 60.917 C 219.667 61.054,219.779 61.167,219.917 61.167 C 220.054 61.167,220.167 61.279,220.167 61.417 C 220.167 61.554,220.279 61.667,220.417 61.667 C 220.554 61.667,220.667 61.779,220.667 61.917 C 220.667 62.054,220.742 62.167,220.833 62.167 C 220.925 62.167,221.000 62.279,221.000 62.417 C 221.000 62.554,221.112 62.667,221.250 62.667 C 221.387 62.667,221.500 62.779,221.500 62.917 C 221.500 63.054,221.612 63.167,221.750 63.167 C 221.887 63.167,222.000 63.279,222.000 63.417 C 222.000 63.554,222.112 63.667,222.250 63.667 C 222.387 63.667,222.500 63.779,222.500 63.917 C 222.500 64.054,222.579 64.167,222.675 64.167 C 222.771 64.167,223.023 64.354,223.235 64.583 C 223.448 64.813,223.707 65.000,223.811 65.000 C 223.915 65.000,224.000 65.112,224.000 65.250 C 224.000 65.417,224.167 65.500,224.500 65.500 C 224.833 65.500,225.000 65.583,225.000 65.750 C 225.000 65.887,225.112 66.000,225.250 66.000 C 225.387 66.000,225.500 66.112,225.500 66.250 C 225.500 66.387,225.612 66.500,225.750 66.500 C 225.887 66.500,226.000 66.612,226.000 66.750 C 226.000 66.906,226.157 67.000,226.417 67.000 C 226.676 67.000,226.833 67.094,226.833 67.250 C 226.833 67.417,227.000 67.500,227.333 67.500 C 227.667 67.500,227.833 67.583,227.833 67.750 C 227.833 67.887,227.938 68.000,228.066 68.000 C 228.193 68.000,228.341 68.112,228.394 68.250 C 228.446 68.387,228.671 68.500,228.894 68.500 C 229.116 68.500,229.341 68.612,229.394 68.750 C 229.457 68.915,229.718 69.000,230.161 69.000 C 230.648 69.000,230.833 69.069,230.833 69.250 C 230.833 69.406,230.991 69.500,231.250 69.500 C 231.479 69.500,231.667 69.575,231.667 69.667 C 231.667 69.758,232.004 69.833,232.417 69.833 C 232.972 69.833,233.167 69.898,233.167 70.083 C 233.167 70.269,233.361 70.333,233.917 70.333 C 234.472 70.333,234.667 70.398,234.667 70.583 C 234.667 70.775,234.880 70.833,235.589 70.833 C 236.254 70.833,236.537 70.903,236.606 71.083 C 236.686 71.290,237.123 71.333,239.101 71.333 C 241.122 71.333,241.500 71.373,241.500 71.583 C 241.500 71.775,241.713 71.833,242.417 71.833 C 243.120 71.833,243.333 71.775,243.333 71.583 C 243.333 71.373,243.713 71.333,245.750 71.333 C 247.787 71.333,248.167 71.294,248.167 71.083 C 248.167 70.889,248.389 70.833,249.167 70.833 C 249.944 70.833,250.167 70.778,250.167 70.583 C 250.167 70.391,250.380 70.333,251.083 70.333 C 251.787 70.333,252.000 70.275,252.000 70.083 C 252.000 69.898,252.194 69.833,252.750 69.833 C 253.162 69.833,253.500 69.758,253.500 69.667 C 253.500 69.575,253.690 69.500,253.922 69.500 C 254.154 69.500,254.387 69.387,254.440 69.250 C 254.494 69.107,254.743 69.000,255.018 69.000 C 255.335 69.000,255.500 68.915,255.500 68.750 C 255.500 68.594,255.657 68.500,255.917 68.500 C 256.176 68.500,256.333 68.406,256.333 68.250 C 256.333 68.083,256.500 68.000,256.833 68.000 C 257.167 68.000,257.333 67.917,257.333 67.750 C 257.333 67.612,257.446 67.500,257.583 67.500 C 257.721 67.500,257.833 67.387,257.833 67.250 C 257.833 67.083,258.000 67.000,258.333 67.000 C 258.667 67.000,258.833 66.917,258.833 66.750 C 258.833 66.612,258.946 66.500,259.083 66.500 C 259.221 66.500,259.333 66.387,259.333 66.250 C 259.333 66.083,259.500 66.000,259.833 66.000 C 260.167 66.000,260.333 65.917,260.333 65.750 C 260.333 65.612,260.446 65.500,260.583 65.500 C 260.721 65.500,260.833 65.387,260.833 65.250 C 260.833 65.112,260.946 65.000,261.083 65.000 C 261.221 65.000,261.333 64.925,261.333 64.833 C 261.333 64.742,261.440 64.667,261.570 64.667 C 261.968 64.667,264.667 61.931,264.667 61.527 C 264.667 61.318,264.771 61.167,264.917 61.167 C 265.054 61.167,265.167 61.054,265.167 60.917 C 265.167 60.779,265.279 60.667,265.417 60.667 C 265.554 60.667,265.667 60.554,265.667 60.417 C 265.667 60.279,265.779 60.167,265.917 60.167 C 266.054 60.167,266.167 60.054,266.167 59.917 C 266.167 59.779,266.240 59.667,266.330 59.667 C 266.420 59.667,266.541 59.479,266.598 59.250 C 266.656 59.021,266.770 58.833,266.851 58.833 C 266.933 58.833,267.000 58.721,267.000 58.583 C 267.000 58.446,267.112 58.333,267.250 58.333 C 267.417 58.333,267.500 58.167,267.500 57.833 C 267.500 57.500,267.583 57.333,267.750 57.333 C 267.887 57.333,268.000 57.221,268.000 57.083 C 268.000 56.946,268.112 56.833,268.250 56.833 C 268.417 56.833,268.500 56.667,268.500 56.333 C 268.500 56.000,268.583 55.833,268.750 55.833 C 268.917 55.833,269.000 55.667,269.000 55.333 C 269.000 55.000,269.083 54.833,269.250 54.833 C 269.403 54.833,269.500 54.678,269.500 54.434 C 269.500 54.215,269.612 53.992,269.750 53.940 C 269.915 53.876,270.000 53.615,270.000 53.172 C 270.000 52.686,270.069 52.500,270.250 52.500 C 270.435 52.500,270.500 52.306,270.500 51.750 C 270.500 51.194,270.565 51.000,270.750 51.000 C 270.929 51.000,271.000 50.817,271.000 50.351 C 271.000 49.928,271.087 49.669,271.250 49.606 C 271.431 49.537,271.500 49.254,271.500 48.589 C 271.500 48.082,271.575 47.667,271.667 47.667 C 271.765 47.667,271.833 47.082,271.833 46.245 C 271.833 45.135,271.888 44.802,272.083 44.727 C 272.296 44.645,272.333 44.026,272.333 40.566 C 272.333 37.063,272.299 36.500,272.083 36.500 C 271.881 36.500,271.833 36.231,271.833 35.083 C 271.833 34.250,271.765 33.667,271.667 33.667 C 271.575 33.667,271.500 33.297,271.500 32.845 C 271.500 32.337,271.405 31.928,271.250 31.774 C 271.112 31.636,271.000 31.264,271.000 30.946 C 271.000 30.587,270.906 30.333,270.750 30.273 C 270.585 30.210,270.500 29.949,270.500 29.505 C 270.500 29.019,270.431 28.833,270.250 28.833 C 270.083 28.833,270.000 28.667,270.000 28.333 C 270.000 28.000,269.917 27.833,269.750 27.833 C 269.583 27.833,269.500 27.667,269.500 27.333 C 269.500 27.000,269.417 26.833,269.250 26.833 C 269.083 26.833,269.000 26.667,269.000 26.333 C 269.000 26.000,268.917 25.833,268.750 25.833 C 268.594 25.833,268.500 25.676,268.500 25.417 C 268.500 25.157,268.406 25.000,268.250 25.000 C 268.083 25.000,268.000 24.833,268.000 24.500 C 268.000 24.167,267.917 24.000,267.750 24.000 C 267.583 24.000,267.500 23.833,267.500 23.500 C 267.500 23.167,267.417 23.000,267.250 23.000 C 267.112 23.000,267.000 22.887,267.000 22.750 C 267.000 22.613,266.925 22.500,266.833 22.500 C 266.742 22.500,266.667 22.387,266.667 22.250 C 266.667 22.113,266.554 22.000,266.417 22.000 C 266.272 22.000,266.167 21.849,266.167 21.642 C 266.167 21.291,264.651 19.667,264.324 19.667 C 264.237 19.667,264.167 19.554,264.167 19.417 C 264.167 19.279,264.054 19.167,263.917 19.167 C 263.779 19.167,263.667 19.054,263.667 18.917 C 263.667 18.779,263.554 18.667,263.417 18.667 C 263.279 18.667,263.167 18.554,263.167 18.417 C 263.167 18.279,263.054 18.167,262.917 18.167 C 262.779 18.167,262.667 18.054,262.667 17.917 C 262.667 17.779,262.554 17.667,262.417 17.667 C 262.279 17.667,262.167 17.554,262.167 17.417 C 262.167 17.279,262.054 17.167,261.917 17.167 C 261.779 17.167,261.667 17.080,261.667 16.975 C 261.667 16.682,260.181 15.343,259.731 15.230 C 259.512 15.175,259.333 15.064,259.333 14.982 C 259.333 14.900,259.221 14.833,259.083 14.833 C 258.946 14.833,258.833 14.721,258.833 14.583 C 258.833 14.417,258.667 14.333,258.333 14.333 C 258.000 14.333,257.833 14.250,257.833 14.083 C 257.833 13.917,257.667 13.833,257.333 13.833 C 257.000 13.833,256.833 13.750,256.833 13.583 C 256.833 13.446,256.721 13.333,256.583 13.333 C 256.446 13.333,256.333 13.221,256.333 13.083 C 256.333 12.931,256.178 12.833,255.934 12.833 C 255.715 12.833,255.492 12.721,255.440 12.583 C 255.376 12.418,255.115 12.333,254.672 12.333 C 254.186 12.333,254.000 12.264,254.000 12.083 C 254.000 11.917,253.833 11.833,253.500 11.833 C 253.167 11.833,253.000 11.750,253.000 11.583 C 253.000 11.398,252.806 11.333,252.250 11.333 C 251.694 11.333,251.500 11.269,251.500 11.083 C 251.500 10.906,251.317 10.832,250.875 10.828 C 250.531 10.825,250.104 10.713,249.926 10.578 C 249.728 10.428,249.228 10.333,248.635 10.333 C 248.100 10.333,247.667 10.259,247.667 10.167 C 247.667 10.059,245.861 10.000,242.583 10.000 C 239.306 10.000,237.500 10.059,237.500 10.167 M373.667 11.167 L 373.667 12.333 375.333 12.333 L 377.000 12.333 377.000 16.007 L 377.000 19.681 378.208 19.632 L 379.417 19.583 379.462 15.958 L 379.507 12.333 380.917 12.333 L 382.327 12.333 382.372 15.958 L 382.417 19.583 383.542 19.633 L 384.667 19.682 384.689 17.049 C 384.702 15.601,384.745 14.585,384.784 14.792 C 384.824 14.998,384.926 15.167,385.012 15.167 C 385.097 15.167,385.167 15.469,385.167 15.839 C 385.167 16.282,385.252 16.543,385.417 16.606 C 385.580 16.669,385.667 16.929,385.667 17.356 C 385.667 17.784,385.753 18.044,385.917 18.106 C 386.078 18.168,386.167 18.426,386.167 18.833 C 386.167 19.583,386.318 19.667,387.667 19.667 C 389.016 19.667,389.167 19.583,389.167 18.833 C 389.167 18.426,389.255 18.168,389.417 18.106 C 389.582 18.043,389.667 17.782,389.667 17.339 C 389.667 16.969,389.742 16.667,389.833 16.667 C 389.925 16.667,390.000 16.329,390.000 15.917 C 390.000 15.368,390.066 15.167,390.245 15.167 C 390.446 15.167,390.499 15.564,390.537 17.375 L 390.583 19.583 391.750 19.583 L 392.917 19.583 392.961 14.792 L 393.005 10.000 391.336 10.000 L 389.667 10.000 389.667 10.417 C 389.667 10.676,389.572 10.833,389.417 10.833 C 389.231 10.833,389.167 11.028,389.167 11.583 C 389.167 12.139,389.102 12.333,388.917 12.333 C 388.731 12.333,388.667 12.528,388.667 13.083 C 388.667 13.639,388.602 13.833,388.417 13.833 C 388.237 13.833,388.167 14.017,388.167 14.489 C 388.167 14.997,388.092 15.168,387.835 15.250 C 387.336 15.408,387.167 15.216,387.167 14.490 C 387.167 14.017,387.097 13.833,386.917 13.833 C 386.731 13.833,386.667 13.639,386.667 13.083 C 386.667 12.528,386.602 12.333,386.417 12.333 C 386.236 12.333,386.167 12.148,386.167 11.661 C 386.167 11.218,386.082 10.957,385.917 10.894 C 385.779 10.841,385.667 10.618,385.667 10.399 L 385.667 10.000 379.667 10.000 L 373.667 10.000 373.667 11.167 M7.500 40.832 L 7.500 71.333 11.583 71.333 L 15.667 71.333 15.667 58.250 L 15.667 45.167 32.417 45.167 L 49.167 45.167 49.167 41.583 L 49.167 38.000 32.417 38.000 L 15.667 38.000 15.667 28.083 L 15.667 18.167 36.500 18.167 L 57.333 18.167 57.333 14.252 L 57.333 10.337 32.417 10.334 L 7.500 10.331 7.500 40.832 M242.894 16.917 C 242.971 17.118,243.346 17.167,244.810 17.167 C 246.275 17.167,246.650 17.216,246.727 17.417 C 246.790 17.580,247.049 17.667,247.477 17.667 C 247.905 17.667,248.164 17.753,248.227 17.917 C 248.290 18.080,248.549 18.167,248.977 18.167 C 249.405 18.167,249.664 18.253,249.727 18.417 C 249.790 18.582,250.051 18.667,250.495 18.667 C 250.981 18.667,251.167 18.736,251.167 18.917 C 251.167 19.054,251.313 19.167,251.491 19.167 C 251.670 19.167,252.018 19.354,252.266 19.583 C 252.513 19.813,252.892 20.000,253.108 20.000 C 253.345 20.000,253.500 20.099,253.500 20.250 C 253.500 20.417,253.667 20.500,254.000 20.500 C 254.333 20.500,254.500 20.583,254.500 20.750 C 254.500 20.887,254.612 21.000,254.750 21.000 C 254.887 21.000,255.000 21.112,255.000 21.250 C 255.000 21.387,255.112 21.500,255.250 21.500 C 255.387 21.500,255.500 21.613,255.500 21.750 C 255.500 21.887,255.612 22.000,255.750 22.000 C 255.887 22.000,256.000 22.113,256.000 22.250 C 256.000 22.406,256.157 22.500,256.417 22.500 C 256.676 22.500,256.833 22.594,256.833 22.750 C 256.833 22.887,256.946 23.000,257.083 23.000 C 257.221 23.000,257.333 23.113,257.333 23.250 C 257.333 23.387,257.446 23.500,257.583 23.500 C 257.721 23.500,257.833 23.613,257.833 23.750 C 257.833 23.887,257.946 24.000,258.083 24.000 C 258.239 24.000,258.333 24.157,258.333 24.417 C 258.333 24.676,258.428 24.833,258.583 24.833 C 258.721 24.833,258.833 24.946,258.833 25.083 C 258.833 25.221,258.946 25.333,259.083 25.333 C 259.221 25.333,259.333 25.446,259.333 25.583 C 259.333 25.721,259.446 25.833,259.583 25.833 C 259.721 25.833,259.833 25.946,259.833 26.083 C 259.833 26.221,259.946 26.333,260.083 26.333 C 260.250 26.333,260.333 26.500,260.333 26.833 C 260.333 27.167,260.417 27.333,260.583 27.333 C 260.721 27.333,260.833 27.446,260.833 27.583 C 260.833 27.721,260.946 27.833,261.083 27.833 C 261.250 27.833,261.333 28.000,261.333 28.333 C 261.333 28.608,261.408 28.833,261.500 28.833 C 261.592 28.833,261.667 28.978,261.667 29.155 C 261.667 29.332,261.779 29.589,261.917 29.726 C 262.054 29.864,262.167 30.132,262.167 30.321 C 262.167 30.517,262.275 30.667,262.417 30.667 C 262.598 30.667,262.667 30.852,262.667 31.339 C 262.667 31.782,262.752 32.043,262.917 32.106 C 263.080 32.169,263.167 32.429,263.167 32.856 C 263.167 33.284,263.253 33.544,263.417 33.606 C 263.580 33.669,263.667 33.928,263.667 34.351 C 263.667 34.817,263.737 35.000,263.917 35.000 C 264.119 35.000,264.167 35.269,264.167 36.422 C 264.167 37.532,264.221 37.865,264.417 37.940 C 264.626 38.020,264.667 38.512,264.667 40.934 C 264.667 43.400,264.629 43.833,264.417 43.833 C 264.219 43.833,264.167 44.072,264.167 44.982 C 264.167 45.850,264.105 46.155,263.917 46.227 C 263.736 46.296,263.667 46.579,263.667 47.245 C 263.667 47.953,263.609 48.167,263.417 48.167 C 263.231 48.167,263.167 48.361,263.167 48.917 C 263.167 49.472,263.102 49.667,262.917 49.667 C 262.764 49.667,262.667 49.822,262.667 50.066 C 262.667 50.285,262.554 50.508,262.417 50.560 C 262.279 50.613,262.167 50.846,262.167 51.078 C 262.167 51.310,262.098 51.500,262.013 51.500 C 261.929 51.500,261.810 51.725,261.750 52.000 C 261.690 52.275,261.571 52.500,261.487 52.500 C 261.402 52.500,261.333 52.725,261.333 53.000 C 261.333 53.333,261.250 53.500,261.083 53.500 C 260.946 53.500,260.833 53.612,260.833 53.750 C 260.833 53.887,260.721 54.000,260.583 54.000 C 260.417 54.000,260.333 54.167,260.333 54.500 C 260.333 54.775,260.255 55.000,260.158 55.000 C 259.834 55.000,258.833 56.114,258.833 56.475 C 258.833 56.682,258.728 56.833,258.583 56.833 C 258.446 56.833,258.333 56.946,258.333 57.083 C 258.333 57.221,258.221 57.333,258.083 57.333 C 257.946 57.333,257.833 57.446,257.833 57.583 C 257.833 57.721,257.721 57.833,257.583 57.833 C 257.446 57.833,257.333 57.946,257.333 58.083 C 257.333 58.221,257.221 58.333,257.083 58.333 C 256.946 58.333,256.833 58.446,256.833 58.583 C 256.833 58.721,256.758 58.833,256.667 58.833 C 256.575 58.833,256.500 58.946,256.500 59.083 C 256.500 59.221,256.387 59.333,256.250 59.333 C 256.112 59.333,256.000 59.446,256.000 59.583 C 256.000 59.742,255.840 59.833,255.561 59.833 C 255.314 59.833,254.963 60.005,254.760 60.224 C 254.561 60.439,254.196 60.665,253.949 60.727 C 253.702 60.789,253.500 60.913,253.500 61.003 C 253.500 61.093,253.387 61.167,253.250 61.167 C 253.112 61.167,253.000 61.279,253.000 61.417 C 253.000 61.573,252.842 61.667,252.578 61.667 C 252.346 61.667,252.113 61.779,252.060 61.917 C 252.008 62.054,251.785 62.167,251.566 62.167 C 251.322 62.167,251.167 62.264,251.167 62.417 C 251.167 62.583,251.000 62.667,250.667 62.667 C 250.333 62.667,250.167 62.750,250.167 62.917 C 250.167 63.102,249.972 63.167,249.417 63.167 C 248.861 63.167,248.667 63.231,248.667 63.417 C 248.667 63.602,248.472 63.667,247.917 63.667 C 247.361 63.667,247.167 63.731,247.167 63.917 C 247.167 64.119,246.898 64.167,245.750 64.167 C 244.602 64.167,244.333 64.214,244.333 64.417 C 244.333 64.624,244.009 64.667,242.417 64.667 C 240.824 64.667,240.500 64.624,240.500 64.417 C 240.500 64.217,240.250 64.167,239.250 64.167 C 238.250 64.167,238.000 64.117,238.000 63.917 C 238.000 63.722,237.778 63.667,237.000 63.667 C 236.222 63.667,236.000 63.611,236.000 63.417 C 236.000 63.260,235.842 63.167,235.578 63.167 C 235.346 63.167,235.113 63.054,235.060 62.917 C 234.998 62.754,234.738 62.667,234.316 62.667 C 233.850 62.667,233.667 62.596,233.667 62.417 C 233.667 62.250,233.500 62.167,233.167 62.167 C 232.833 62.167,232.667 62.083,232.667 61.917 C 232.667 61.779,232.562 61.667,232.434 61.667 C 232.307 61.667,232.159 61.554,232.106 61.417 C 232.054 61.279,231.821 61.167,231.589 61.167 C 231.325 61.167,231.167 61.073,231.167 60.917 C 231.167 60.779,231.054 60.667,230.917 60.667 C 230.779 60.667,230.667 60.600,230.667 60.518 C 230.667 60.436,230.479 60.322,230.250 60.265 C 230.021 60.207,229.833 60.087,229.833 59.997 C 229.833 59.907,229.721 59.833,229.583 59.833 C 229.446 59.833,229.333 59.721,229.333 59.583 C 229.333 59.446,229.221 59.333,229.083 59.333 C 228.946 59.333,228.833 59.221,228.833 59.083 C 228.833 58.946,228.721 58.833,228.583 58.833 C 228.446 58.833,228.333 58.721,228.333 58.583 C 228.333 58.446,228.221 58.333,228.083 58.333 C 227.946 58.333,227.833 58.221,227.833 58.083 C 227.833 57.946,227.721 57.833,227.583 57.833 C 227.446 57.833,227.333 57.721,227.333 57.583 C 227.333 57.446,227.221 57.333,227.083 57.333 C 226.946 57.333,226.833 57.221,226.833 57.083 C 226.833 56.946,226.721 56.833,226.583 56.833 C 226.446 56.833,226.333 56.721,226.333 56.583 C 226.333 56.446,226.221 56.333,226.083 56.333 C 225.946 56.333,225.833 56.248,225.833 56.144 C 225.833 56.040,225.646 55.781,225.417 55.569 C 225.188 55.356,225.000 55.029,225.000 54.841 C 225.000 54.649,224.891 54.500,224.750 54.500 C 224.612 54.500,224.500 54.387,224.500 54.250 C 224.500 54.112,224.387 54.000,224.250 54.000 C 224.083 54.000,224.000 53.833,224.000 53.500 C 224.000 53.167,223.917 53.000,223.750 53.000 C 223.583 53.000,223.500 52.833,223.500 52.500 C 223.500 52.167,223.417 52.000,223.250 52.000 C 223.094 52.000,223.000 51.842,223.000 51.578 C 223.000 51.346,222.887 51.113,222.750 51.060 C 222.612 51.008,222.500 50.793,222.500 50.583 C 222.500 50.374,222.387 50.159,222.250 50.106 C 222.085 50.043,222.000 49.782,222.000 49.339 C 222.000 48.852,221.931 48.667,221.750 48.667 C 221.565 48.667,221.500 48.472,221.500 47.917 C 221.500 47.361,221.435 47.167,221.250 47.167 C 221.058 47.167,221.000 46.953,221.000 46.245 C 221.000 45.579,220.931 45.296,220.750 45.227 C 220.537 45.145,220.500 44.498,220.500 40.816 C 220.500 37.091,220.534 36.500,220.750 36.500 C 220.948 36.500,221.000 36.259,221.000 35.333 C 221.000 34.407,221.052 34.167,221.250 34.167 C 221.435 34.167,221.500 33.972,221.500 33.417 C 221.500 32.861,221.565 32.667,221.750 32.667 C 221.935 32.667,222.000 32.472,222.000 31.917 C 222.000 31.361,222.065 31.167,222.250 31.167 C 222.417 31.167,222.500 31.000,222.500 30.667 C 222.500 30.333,222.583 30.167,222.750 30.167 C 222.903 30.167,223.000 30.011,223.000 29.768 C 223.000 29.548,223.112 29.326,223.250 29.273 C 223.387 29.220,223.500 28.987,223.500 28.755 C 223.500 28.491,223.594 28.333,223.750 28.333 C 223.887 28.333,224.000 28.229,224.000 28.101 C 224.000 27.973,224.112 27.826,224.250 27.773 C 224.387 27.720,224.500 27.487,224.500 27.255 C 224.500 26.991,224.594 26.833,224.750 26.833 C 224.887 26.833,225.000 26.721,225.000 26.583 C 225.000 26.446,225.067 26.333,225.149 26.333 C 225.230 26.333,225.347 26.137,225.407 25.897 C 225.527 25.418,225.875 25.000,226.155 25.000 C 226.253 25.000,226.333 24.925,226.333 24.833 C 226.333 24.617,226.951 24.000,227.167 24.000 C 227.258 24.000,227.333 23.887,227.333 23.750 C 227.333 23.613,227.446 23.500,227.583 23.500 C 227.721 23.500,227.833 23.387,227.833 23.250 C 227.833 23.113,227.946 23.000,228.083 23.000 C 228.221 23.000,228.333 22.887,228.333 22.750 C 228.333 22.613,228.446 22.500,228.583 22.500 C 228.721 22.500,228.833 22.387,228.833 22.250 C 228.833 22.113,228.946 22.000,229.083 22.000 C 229.221 22.000,229.333 21.887,229.333 21.750 C 229.333 21.612,229.481 21.500,229.664 21.500 C 230.013 21.500,231.167 20.487,231.167 20.181 C 231.167 20.081,231.392 20.000,231.667 20.000 C 231.942 20.000,232.167 19.925,232.167 19.833 C 232.167 19.742,232.357 19.667,232.589 19.667 C 232.821 19.667,233.054 19.554,233.106 19.417 C 233.159 19.279,233.384 19.167,233.606 19.167 C 233.829 19.167,234.054 19.054,234.106 18.917 C 234.159 18.779,234.384 18.667,234.606 18.667 C 234.829 18.667,235.054 18.554,235.106 18.417 C 235.169 18.254,235.428 18.167,235.851 18.167 C 236.317 18.167,236.500 18.096,236.500 17.917 C 236.500 17.725,236.714 17.667,237.422 17.667 C 238.088 17.667,238.370 17.597,238.440 17.417 C 238.516 17.218,238.873 17.167,240.184 17.167 C 241.539 17.167,241.833 17.122,241.833 16.917 C 241.833 16.752,241.998 16.667,242.316 16.667 C 242.590 16.667,242.839 16.774,242.894 16.917 M297.167 22.250 C 297.167 22.444,296.944 22.500,296.167 22.500 C 295.389 22.500,295.167 22.556,295.167 22.750 C 295.167 22.917,295.000 23.000,294.667 23.000 C 294.333 23.000,294.167 23.083,294.167 23.250 C 294.167 23.417,294.000 23.500,293.667 23.500 C 293.333 23.500,293.167 23.583,293.167 23.750 C 293.167 23.906,293.009 24.000,292.750 24.000 C 292.491 24.000,292.333 24.094,292.333 24.250 C 292.333 24.387,292.221 24.500,292.083 24.500 C 291.946 24.500,291.833 24.613,291.833 24.750 C 291.833 24.917,291.667 25.000,291.333 25.000 C 291.000 25.000,290.833 25.083,290.833 25.250 C 290.833 25.387,290.721 25.500,290.583 25.500 C 290.446 25.500,290.333 25.575,290.333 25.667 C 290.333 25.758,290.221 25.833,290.083 25.833 C 289.946 25.833,289.830 25.927,289.826 26.042 C 289.822 26.156,289.597 26.434,289.326 26.659 C 289.042 26.895,288.833 27.230,288.833 27.451 C 288.833 27.680,288.733 27.833,288.583 27.833 C 288.446 27.833,288.333 27.946,288.333 28.083 C 288.333 28.221,288.221 28.333,288.083 28.333 C 287.946 28.333,287.833 28.446,287.833 28.583 C 287.833 28.721,287.764 28.833,287.680 28.833 C 287.596 28.833,287.477 29.058,287.417 29.333 C 287.159 30.505,287.000 29.677,287.000 27.167 L 287.000 24.500 283.083 24.500 L 279.167 24.500 279.167 47.003 L 279.167 69.506 283.042 69.461 L 286.917 69.417 286.959 56.625 C 286.987 48.290,287.060 43.833,287.168 43.833 C 287.259 43.833,287.333 43.385,287.333 42.833 C 287.333 42.056,287.389 41.833,287.583 41.833 C 287.769 41.833,287.833 41.639,287.833 41.083 C 287.833 40.528,287.898 40.333,288.083 40.333 C 288.264 40.333,288.333 40.148,288.333 39.667 C 288.333 39.185,288.403 39.000,288.583 39.000 C 288.750 39.000,288.833 38.833,288.833 38.500 C 288.833 38.167,288.917 38.000,289.083 38.000 C 289.250 38.000,289.333 37.833,289.333 37.500 C 289.333 37.167,289.417 37.000,289.583 37.000 C 289.721 37.000,289.833 36.896,289.833 36.768 C 289.833 36.640,289.946 36.492,290.083 36.440 C 290.221 36.387,290.333 36.154,290.333 35.922 C 290.333 35.658,290.427 35.500,290.583 35.500 C 290.721 35.500,290.833 35.387,290.833 35.250 C 290.833 35.112,290.946 35.000,291.083 35.000 C 291.221 35.000,291.333 34.925,291.333 34.832 C 291.333 34.622,292.798 33.167,293.010 33.167 C 293.096 33.167,293.167 33.054,293.167 32.917 C 293.167 32.779,293.279 32.667,293.417 32.667 C 293.554 32.667,293.667 32.554,293.667 32.417 C 293.667 32.279,293.779 32.167,293.917 32.167 C 294.054 32.167,294.167 32.054,294.167 31.917 C 294.167 31.750,294.333 31.667,294.667 31.667 C 295.000 31.667,295.167 31.583,295.167 31.417 C 295.167 31.250,295.333 31.167,295.667 31.167 C 296.000 31.167,296.167 31.083,296.167 30.917 C 296.167 30.750,296.333 30.667,296.667 30.667 C 297.000 30.667,297.167 30.583,297.167 30.417 C 297.167 30.236,297.352 30.167,297.833 30.167 C 298.200 30.167,298.500 30.092,298.500 30.000 C 298.500 29.896,299.500 29.833,301.167 29.833 C 302.833 29.833,303.833 29.896,303.833 30.000 C 303.833 30.092,304.171 30.167,304.583 30.167 C 305.139 30.167,305.333 30.231,305.333 30.417 C 305.333 30.583,305.500 30.667,305.833 30.667 C 306.167 30.667,306.333 30.750,306.333 30.917 C 306.333 31.083,306.500 31.167,306.833 31.167 C 307.167 31.167,307.333 31.250,307.333 31.417 C 307.333 31.572,307.491 31.667,307.750 31.667 C 308.009 31.667,308.167 31.761,308.167 31.917 C 308.167 32.054,308.279 32.167,308.417 32.167 C 308.554 32.167,308.667 32.279,308.667 32.417 C 308.667 32.554,308.738 32.667,308.826 32.667 C 308.914 32.667,309.401 33.079,309.909 33.583 C 310.418 34.087,310.908 34.500,311.000 34.500 C 311.092 34.500,311.167 34.612,311.167 34.750 C 311.167 34.887,311.279 35.000,311.417 35.000 C 311.554 35.000,311.667 35.112,311.667 35.250 C 311.667 35.387,311.779 35.500,311.917 35.500 C 312.083 35.500,312.167 35.667,312.167 36.000 C 312.167 36.333,312.250 36.500,312.417 36.500 C 312.554 36.500,312.667 36.612,312.667 36.750 C 312.667 36.887,312.736 37.000,312.820 37.000 C 312.904 37.000,313.023 37.225,313.083 37.500 C 313.144 37.775,313.262 38.000,313.347 38.000 C 313.431 38.000,313.500 38.190,313.500 38.422 C 313.500 38.654,313.612 38.887,313.750 38.940 C 313.887 38.992,314.000 39.215,314.000 39.434 C 314.000 39.678,314.097 39.833,314.250 39.833 C 314.435 39.833,314.500 40.028,314.500 40.583 C 314.500 41.139,314.565 41.333,314.750 41.333 C 314.948 41.333,315.000 41.573,315.000 42.492 C 315.000 43.346,315.065 43.687,315.249 43.789 C 315.466 43.911,315.503 45.572,315.541 56.673 L 315.583 69.417 319.375 69.461 L 323.167 69.506 323.167 55.920 C 323.167 46.973,323.110 42.333,323.000 42.333 C 322.906 42.333,322.833 41.859,322.833 41.245 C 322.833 40.431,322.770 40.132,322.583 40.060 C 322.409 39.993,322.333 39.721,322.333 39.161 C 322.333 38.669,322.236 38.260,322.083 38.107 C 321.946 37.970,321.833 37.587,321.833 37.257 C 321.833 36.877,321.742 36.621,321.583 36.560 C 321.446 36.508,321.333 36.283,321.333 36.060 C 321.333 35.838,321.221 35.613,321.083 35.560 C 320.946 35.508,320.833 35.285,320.833 35.066 C 320.833 34.822,320.736 34.667,320.583 34.667 C 320.417 34.667,320.333 34.500,320.333 34.167 C 320.333 33.833,320.250 33.667,320.083 33.667 C 319.917 33.667,319.833 33.500,319.833 33.167 C 319.833 32.833,319.750 32.667,319.583 32.667 C 319.427 32.667,319.333 32.509,319.333 32.245 C 319.333 32.013,319.221 31.780,319.083 31.727 C 318.946 31.674,318.833 31.527,318.833 31.399 C 318.833 31.271,318.721 31.167,318.583 31.167 C 318.446 31.167,318.333 31.054,318.333 30.917 C 318.333 30.779,318.266 30.667,318.185 30.667 C 318.103 30.667,317.989 30.479,317.932 30.250 C 317.874 30.021,317.753 29.833,317.663 29.833 C 317.574 29.833,317.500 29.721,317.500 29.583 C 317.500 29.446,317.387 29.333,317.250 29.333 C 317.112 29.333,317.000 29.221,317.000 29.083 C 317.000 28.946,316.887 28.833,316.750 28.833 C 316.612 28.833,316.500 28.721,316.500 28.583 C 316.500 28.446,316.387 28.333,316.250 28.333 C 316.112 28.333,316.000 28.221,316.000 28.083 C 316.000 27.946,315.887 27.833,315.750 27.833 C 315.612 27.833,315.500 27.721,315.500 27.583 C 315.500 27.446,315.387 27.333,315.250 27.333 C 315.112 27.333,315.000 27.221,315.000 27.083 C 315.000 26.946,314.887 26.833,314.750 26.833 C 314.612 26.833,314.500 26.721,314.500 26.583 C 314.500 26.446,314.396 26.333,314.268 26.333 C 314.140 26.333,313.992 26.221,313.940 26.083 C 313.887 25.946,313.654 25.833,313.422 25.833 C 313.190 25.833,313.000 25.748,313.000 25.643 C 313.000 25.363,312.472 25.011,312.042 25.005 C 311.822 25.002,311.667 24.897,311.667 24.750 C 311.667 24.613,311.554 24.500,311.417 24.500 C 311.279 24.500,311.167 24.387,311.167 24.250 C 311.167 24.083,311.000 24.000,310.667 24.000 C 310.333 24.000,310.167 23.917,310.167 23.750 C 310.167 23.565,309.972 23.500,309.417 23.500 C 308.861 23.500,308.667 23.435,308.667 23.250 C 308.667 23.071,308.483 23.000,308.018 23.000 C 307.595 23.000,307.336 22.913,307.273 22.750 C 307.210 22.587,306.951 22.500,306.523 22.500 C 306.095 22.500,305.836 22.413,305.773 22.250 C 305.691 22.037,305.051 22.000,301.422 22.000 C 297.751 22.000,297.167 22.034,297.167 22.250 M348.000 22.250 C 348.000 22.444,347.778 22.500,347.000 22.500 C 346.222 22.500,346.000 22.556,346.000 22.750 C 346.000 22.935,345.806 23.000,345.250 23.000 C 344.694 23.000,344.500 23.065,344.500 23.250 C 344.500 23.431,344.315 23.500,343.833 23.500 C 343.352 23.500,343.167 23.569,343.167 23.750 C 343.167 23.917,343.000 24.000,342.667 24.000 C 342.333 24.000,342.167 24.083,342.167 24.250 C 342.167 24.387,342.054 24.500,341.917 24.500 C 341.779 24.500,341.667 24.613,341.667 24.750 C 341.667 24.909,341.507 25.000,341.227 25.000 C 340.973 25.000,340.626 25.175,340.402 25.417 C 340.190 25.646,339.919 25.834,339.800 25.834 C 339.532 25.835,338.333 26.918,338.333 27.158 C 338.333 27.255,338.221 27.333,338.083 27.333 C 337.946 27.333,337.833 27.446,337.833 27.583 C 337.833 27.721,337.721 27.833,337.583 27.833 C 337.446 27.833,337.333 27.946,337.333 28.083 C 337.333 28.221,337.221 28.333,337.083 28.333 C 336.946 28.333,336.833 28.446,336.833 28.583 C 336.833 28.721,336.721 28.833,336.583 28.833 C 336.446 28.833,336.333 28.946,336.333 29.083 C 336.333 29.221,336.221 29.333,336.083 29.333 C 335.946 29.333,335.833 29.446,335.833 29.583 C 335.833 29.721,335.721 29.833,335.583 29.833 C 335.428 29.833,335.333 29.991,335.333 30.250 C 335.333 30.509,335.239 30.667,335.083 30.667 C 334.946 30.667,334.833 30.771,334.833 30.899 C 334.833 31.027,334.721 31.174,334.583 31.227 C 334.446 31.280,334.333 31.513,334.333 31.745 C 334.333 32.009,334.240 32.167,334.083 32.167 C 333.946 32.167,333.833 32.279,333.833 32.417 C 333.833 32.554,333.758 32.667,333.667 32.667 C 333.575 32.667,333.500 32.857,333.500 33.089 C 333.500 33.321,333.387 33.554,333.250 33.606 C 333.107 33.661,333.000 33.910,333.000 34.184 C 333.000 34.502,332.915 34.667,332.750 34.667 C 332.597 34.667,332.500 34.822,332.500 35.066 C 332.500 35.285,332.387 35.508,332.250 35.560 C 332.085 35.624,332.000 35.885,332.000 36.328 C 332.000 36.814,331.931 37.000,331.750 37.000 C 331.565 37.000,331.500 37.194,331.500 37.750 C 331.500 38.306,331.435 38.500,331.250 38.500 C 331.059 38.500,331.000 38.711,331.000 39.399 C 331.000 40.044,330.929 40.325,330.750 40.394 C 330.561 40.466,330.500 40.772,330.500 41.644 C 330.500 42.516,330.439 42.821,330.250 42.894 C 330.038 42.975,330.000 43.561,330.000 46.745 C 330.000 49.972,330.035 50.500,330.250 50.500 C 330.453 50.500,330.500 50.769,330.500 51.922 C 330.500 53.032,330.555 53.365,330.750 53.440 C 330.929 53.509,331.000 53.789,331.000 54.434 C 331.000 55.122,331.059 55.333,331.250 55.333 C 331.435 55.333,331.500 55.528,331.500 56.083 C 331.500 56.639,331.565 56.833,331.750 56.833 C 331.917 56.833,332.000 57.000,332.000 57.333 C 332.000 57.667,332.083 57.833,332.250 57.833 C 332.417 57.833,332.500 58.000,332.500 58.333 C 332.500 58.667,332.583 58.833,332.750 58.833 C 332.915 58.833,333.000 58.998,333.000 59.316 C 333.000 59.590,333.107 59.839,333.250 59.894 C 333.387 59.946,333.500 60.142,333.500 60.328 C 333.500 60.514,333.575 60.667,333.667 60.667 C 333.758 60.667,333.833 60.811,333.833 60.988 C 333.833 61.165,333.946 61.422,334.083 61.560 C 334.221 61.697,334.333 61.890,334.333 61.988 C 334.333 62.086,334.446 62.167,334.583 62.167 C 334.740 62.167,334.833 62.325,334.833 62.589 C 334.833 62.821,334.946 63.054,335.083 63.106 C 335.221 63.159,335.333 63.307,335.333 63.434 C 335.333 63.562,335.446 63.667,335.583 63.667 C 335.721 63.667,335.833 63.779,335.833 63.917 C 335.833 64.054,335.946 64.167,336.083 64.167 C 336.221 64.167,336.333 64.279,336.333 64.417 C 336.333 64.554,336.446 64.667,336.583 64.667 C 336.721 64.667,336.833 64.742,336.833 64.833 C 336.833 64.925,336.946 65.000,337.083 65.000 C 337.221 65.000,337.333 65.112,337.333 65.250 C 337.333 65.387,337.446 65.500,337.583 65.500 C 337.721 65.500,337.833 65.612,337.833 65.750 C 337.833 65.887,337.946 66.000,338.083 66.000 C 338.221 66.000,338.333 66.079,338.333 66.176 C 338.333 66.509,339.950 68.000,340.311 68.000 C 340.516 68.000,340.667 68.106,340.667 68.250 C 340.667 68.387,340.771 68.500,340.899 68.500 C 341.027 68.500,341.174 68.612,341.227 68.750 C 341.280 68.887,341.505 69.000,341.727 69.000 C 341.949 69.000,342.174 69.112,342.227 69.250 C 342.280 69.387,342.513 69.500,342.745 69.500 C 342.977 69.500,343.167 69.575,343.167 69.667 C 343.167 69.758,343.346 69.833,343.566 69.833 C 343.785 69.833,344.008 69.946,344.060 70.083 C 344.124 70.248,344.385 70.333,344.828 70.333 C 345.314 70.333,345.500 70.402,345.500 70.583 C 345.500 70.769,345.694 70.833,346.250 70.833 C 346.806 70.833,347.000 70.898,347.000 71.083 C 347.000 71.291,347.322 71.333,348.899 71.333 C 350.433 71.333,350.816 71.381,350.894 71.583 C 351.031 71.942,352.833 71.942,352.833 71.583 C 352.833 71.374,353.185 71.333,355.000 71.333 C 356.815 71.333,357.167 71.293,357.167 71.083 C 357.167 70.885,357.407 70.833,358.333 70.833 C 359.259 70.833,359.500 70.782,359.500 70.583 C 359.500 70.398,359.694 70.333,360.250 70.333 C 360.806 70.333,361.000 70.269,361.000 70.083 C 361.000 69.917,361.167 69.833,361.500 69.833 C 361.775 69.833,362.000 69.758,362.000 69.667 C 362.000 69.575,362.220 69.500,362.488 69.500 C 362.757 69.500,363.089 69.387,363.226 69.250 C 363.364 69.113,363.634 69.000,363.827 69.000 C 364.019 69.000,364.220 68.887,364.273 68.750 C 364.326 68.612,364.473 68.500,364.601 68.500 C 364.729 68.500,364.833 68.387,364.833 68.250 C 364.833 68.083,365.000 68.000,365.333 68.000 C 365.667 68.000,365.833 67.917,365.833 67.750 C 365.833 67.594,365.991 67.500,366.255 67.500 C 366.487 67.500,366.720 67.387,366.773 67.250 C 366.826 67.112,366.973 67.000,367.101 67.000 C 367.229 67.000,367.333 66.887,367.333 66.750 C 367.333 66.612,367.446 66.500,367.583 66.500 C 367.721 66.500,367.833 66.387,367.833 66.250 C 367.833 66.111,367.981 66.000,368.167 66.000 C 368.514 66.000,369.167 65.456,369.167 65.167 C 369.167 65.075,369.252 65.000,369.356 65.000 C 369.460 65.000,369.719 64.813,369.931 64.583 C 370.144 64.354,370.396 64.167,370.492 64.167 C 370.588 64.167,370.667 64.054,370.667 63.917 C 370.667 63.779,370.779 63.667,370.917 63.667 C 371.054 63.667,371.167 63.554,371.167 63.417 C 371.167 63.279,371.279 63.167,371.417 63.167 C 371.554 63.167,371.667 63.062,371.667 62.934 C 371.667 62.807,371.779 62.659,371.917 62.606 C 372.054 62.554,372.167 62.321,372.167 62.089 C 372.167 61.825,372.260 61.667,372.417 61.667 C 372.554 61.667,372.667 61.554,372.667 61.417 C 372.667 61.279,372.779 61.167,372.917 61.167 C 373.054 61.167,373.167 61.062,373.167 60.934 C 373.167 60.807,373.279 60.659,373.417 60.606 C 373.554 60.554,373.667 60.366,373.667 60.190 C 373.667 60.013,373.779 59.826,373.917 59.773 C 374.054 59.720,374.167 59.562,374.167 59.422 C 374.167 59.282,374.242 59.167,374.333 59.167 C 374.425 59.167,374.500 58.979,374.500 58.750 C 374.500 58.491,374.594 58.333,374.750 58.333 C 374.917 58.333,375.000 58.167,375.000 57.833 L 375.000 57.333 370.167 57.333 C 366.671 57.333,365.333 57.386,365.333 57.523 C 365.333 57.627,365.146 57.886,364.917 58.098 C 364.688 58.310,364.500 58.563,364.500 58.659 C 364.500 58.755,364.387 58.833,364.250 58.833 C 364.113 58.833,364.000 58.946,364.000 59.083 C 364.000 59.221,363.887 59.333,363.750 59.333 C 363.613 59.333,363.500 59.446,363.500 59.583 C 363.500 59.721,363.387 59.833,363.250 59.833 C 363.113 59.833,363.000 59.900,363.000 59.982 C 363.000 60.064,362.798 60.181,362.550 60.243 C 362.303 60.306,361.931 60.539,361.725 60.762 C 361.518 60.984,361.193 61.167,361.003 61.167 C 360.812 61.167,360.613 61.279,360.560 61.417 C 360.508 61.554,360.293 61.667,360.083 61.667 C 359.874 61.667,359.659 61.779,359.606 61.917 C 359.554 62.054,359.321 62.167,359.089 62.167 C 358.825 62.167,358.667 62.260,358.667 62.417 C 358.667 62.583,358.500 62.667,358.167 62.667 C 357.833 62.667,357.667 62.750,357.667 62.917 C 357.667 63.111,357.444 63.167,356.667 63.167 C 355.889 63.167,355.667 63.222,355.667 63.417 C 355.667 63.619,355.398 63.667,354.250 63.667 C 353.102 63.667,352.833 63.714,352.833 63.917 C 352.833 64.102,352.639 64.167,352.083 64.167 C 351.528 64.167,351.333 64.102,351.333 63.917 C 351.333 63.717,351.083 63.667,350.083 63.667 C 349.083 63.667,348.833 63.617,348.833 63.417 C 348.833 63.236,348.648 63.167,348.167 63.167 C 347.685 63.167,347.500 63.097,347.500 62.917 C 347.500 62.750,347.333 62.667,347.000 62.667 C 346.667 62.667,346.500 62.583,346.500 62.417 C 346.500 62.250,346.333 62.167,346.000 62.167 C 345.667 62.167,345.500 62.083,345.500 61.917 C 345.500 61.779,345.387 61.667,345.250 61.667 C 345.113 61.667,345.000 61.554,345.000 61.417 C 345.000 61.250,344.833 61.167,344.500 61.167 C 344.225 61.167,344.000 61.086,344.000 60.987 C 344.000 60.754,343.079 59.833,342.846 59.833 C 342.747 59.833,342.667 59.721,342.667 59.583 C 342.667 59.446,342.554 59.333,342.417 59.333 C 342.260 59.333,342.167 59.175,342.167 58.911 C 342.167 58.679,342.054 58.446,341.917 58.394 C 341.779 58.341,341.667 58.193,341.667 58.066 C 341.667 57.938,341.554 57.833,341.417 57.833 C 341.279 57.833,341.167 57.721,341.167 57.583 C 341.167 57.446,341.054 57.333,340.917 57.333 C 340.750 57.333,340.667 57.167,340.667 56.833 C 340.667 56.500,340.583 56.333,340.417 56.333 C 340.260 56.333,340.167 56.175,340.167 55.911 C 340.167 55.679,340.054 55.446,339.917 55.394 C 339.779 55.341,339.667 55.118,339.667 54.899 C 339.667 54.655,339.569 54.500,339.417 54.500 C 339.250 54.500,339.167 54.333,339.167 54.000 C 339.167 53.667,339.083 53.500,338.917 53.500 C 338.722 53.500,338.667 53.278,338.667 52.500 C 338.667 51.944,338.593 51.500,338.500 51.500 C 338.408 51.500,338.333 51.275,338.333 51.000 L 338.333 50.500 356.000 50.500 L 373.667 50.500 373.667 46.495 C 373.667 43.088,373.629 42.475,373.417 42.394 C 373.228 42.321,373.167 42.016,373.167 41.149 C 373.167 40.239,373.115 40.000,372.917 40.000 C 372.722 40.000,372.667 39.778,372.667 39.000 C 372.667 38.222,372.611 38.000,372.417 38.000 C 372.231 38.000,372.167 37.806,372.167 37.250 C 372.167 36.694,372.102 36.500,371.917 36.500 C 371.760 36.500,371.667 36.342,371.667 36.078 C 371.667 35.846,371.554 35.613,371.417 35.560 C 371.279 35.508,371.167 35.285,371.167 35.066 C 371.167 34.822,371.069 34.667,370.917 34.667 C 370.750 34.667,370.667 34.500,370.667 34.167 C 370.667 33.833,370.583 33.667,370.417 33.667 C 370.250 33.667,370.167 33.500,370.167 33.167 C 370.167 32.833,370.083 32.667,369.917 32.667 C 369.750 32.667,369.667 32.500,369.667 32.167 C 369.667 31.833,369.583 31.667,369.417 31.667 C 369.279 31.667,369.167 31.554,369.167 31.417 C 369.167 31.279,369.100 31.167,369.018 31.167 C 368.936 31.167,368.822 30.979,368.765 30.750 C 368.707 30.521,368.587 30.333,368.497 30.333 C 368.407 30.333,368.333 30.221,368.333 30.083 C 368.333 29.946,368.221 29.833,368.083 29.833 C 367.946 29.833,367.833 29.721,367.833 29.583 C 367.833 29.446,367.721 29.333,367.583 29.333 C 367.446 29.333,367.333 29.221,367.333 29.083 C 367.333 28.946,367.221 28.833,367.083 28.833 C 366.946 28.833,366.833 28.721,366.833 28.583 C 366.833 28.446,366.721 28.333,366.583 28.333 C 366.446 28.333,366.333 28.221,366.333 28.083 C 366.333 27.946,366.221 27.833,366.083 27.833 C 365.946 27.833,365.833 27.721,365.833 27.583 C 365.833 27.446,365.721 27.333,365.583 27.333 C 365.446 27.333,365.333 27.221,365.333 27.083 C 365.333 26.946,365.221 26.833,365.083 26.833 C 364.946 26.833,364.833 26.721,364.833 26.583 C 364.833 26.446,364.721 26.333,364.583 26.333 C 364.446 26.333,364.333 26.221,364.333 26.083 C 364.333 25.943,364.184 25.833,363.992 25.833 C 363.804 25.833,363.477 25.646,363.265 25.417 C 363.041 25.175,362.694 25.000,362.439 25.000 C 362.160 25.000,362.000 24.909,362.000 24.750 C 362.000 24.613,361.887 24.500,361.750 24.500 C 361.613 24.500,361.500 24.387,361.500 24.250 C 361.500 24.083,361.333 24.000,361.000 24.000 C 360.667 24.000,360.500 23.917,360.500 23.750 C 360.500 23.565,360.306 23.500,359.750 23.500 C 359.194 23.500,359.000 23.435,359.000 23.250 C 359.000 23.094,358.842 23.000,358.578 23.000 C 358.346 23.000,358.113 22.887,358.060 22.750 C 357.992 22.571,357.713 22.500,357.083 22.500 C 356.454 22.500,356.175 22.429,356.106 22.250 C 356.025 22.037,355.412 22.000,352.005 22.000 C 348.556 22.000,348.000 22.035,348.000 22.250 M354.333 30.000 C 354.333 30.092,354.633 30.167,355.000 30.167 C 355.481 30.167,355.667 30.236,355.667 30.417 C 355.667 30.602,355.861 30.667,356.417 30.667 C 356.972 30.667,357.167 30.731,357.167 30.917 C 357.167 31.054,357.279 31.167,357.417 31.167 C 357.554 31.167,357.667 31.279,357.667 31.417 C 357.667 31.583,357.833 31.667,358.167 31.667 C 358.500 31.667,358.667 31.750,358.667 31.917 C 358.667 32.054,358.779 32.167,358.917 32.167 C 359.054 32.167,359.167 32.279,359.167 32.417 C 359.167 32.572,359.324 32.667,359.583 32.667 C 359.843 32.667,360.000 32.761,360.000 32.917 C 360.000 33.054,360.113 33.167,360.250 33.167 C 360.387 33.167,360.500 33.279,360.500 33.417 C 360.500 33.554,360.613 33.667,360.750 33.667 C 360.887 33.667,361.000 33.779,361.000 33.917 C 361.000 34.054,361.113 34.167,361.250 34.167 C 361.406 34.167,361.500 34.324,361.500 34.583 C 361.500 34.843,361.594 35.000,361.750 35.000 C 361.887 35.000,362.000 35.112,362.000 35.250 C 362.000 35.387,362.113 35.500,362.250 35.500 C 362.387 35.500,362.500 35.612,362.500 35.750 C 362.500 35.887,362.613 36.000,362.750 36.000 C 362.917 36.000,363.000 36.167,363.000 36.500 C 363.000 36.833,363.083 37.000,363.250 37.000 C 363.417 37.000,363.500 37.167,363.500 37.500 C 363.500 37.833,363.583 38.000,363.750 38.000 C 363.917 38.000,364.000 38.167,364.000 38.500 C 364.000 38.775,364.075 39.000,364.167 39.000 C 364.258 39.000,364.333 39.152,364.333 39.339 C 364.333 39.525,364.446 39.720,364.583 39.773 C 364.753 39.838,364.833 40.104,364.833 40.601 C 364.833 41.141,364.899 41.333,365.083 41.333 C 365.269 41.333,365.333 41.528,365.333 42.083 L 365.333 42.833 351.833 42.833 L 338.333 42.833 338.333 42.333 C 338.333 42.058,338.408 41.833,338.500 41.833 C 338.592 41.833,338.667 41.496,338.667 41.083 C 338.667 40.528,338.731 40.333,338.917 40.333 C 339.097 40.333,339.167 40.148,339.167 39.667 C 339.167 39.185,339.236 39.000,339.417 39.000 C 339.583 39.000,339.667 38.833,339.667 38.500 C 339.667 38.167,339.750 38.000,339.917 38.000 C 340.083 38.000,340.167 37.833,340.167 37.500 C 340.167 37.167,340.250 37.000,340.417 37.000 C 340.554 37.000,340.667 36.887,340.667 36.750 C 340.667 36.612,340.779 36.500,340.917 36.500 C 341.083 36.500,341.167 36.333,341.167 36.000 C 341.167 35.667,341.250 35.500,341.417 35.500 C 341.554 35.500,341.667 35.387,341.667 35.250 C 341.667 35.112,341.779 35.000,341.917 35.000 C 342.054 35.000,342.167 34.933,342.167 34.852 C 342.167 34.651,343.642 33.167,343.841 33.167 C 343.928 33.167,344.000 33.054,344.000 32.917 C 344.000 32.779,344.113 32.667,344.250 32.667 C 344.387 32.667,344.500 32.554,344.500 32.417 C 344.500 32.279,344.613 32.167,344.750 32.167 C 344.887 32.167,345.000 32.054,345.000 31.917 C 345.000 31.750,345.167 31.667,345.500 31.667 C 345.833 31.667,346.000 31.583,346.000 31.417 C 346.000 31.260,346.158 31.167,346.422 31.167 C 346.654 31.167,346.887 31.054,346.940 30.917 C 346.992 30.779,347.217 30.667,347.440 30.667 C 347.662 30.667,347.887 30.554,347.940 30.417 C 348.002 30.254,348.262 30.167,348.684 30.167 C 349.041 30.167,349.333 30.092,349.333 30.000 C 349.333 29.896,350.278 29.833,351.833 29.833 C 353.389 29.833,354.333 29.896,354.333 30.000 " stroke="none" fill="#ffffff" fill-rule="evenodd"></path><path id="path3" d="M67.458 74.787 C 67.756 74.824,68.244 74.824,68.542 74.787 C 68.840 74.750,68.596 74.720,68.000 74.720 C 67.404 74.720,67.160 74.750,67.458 74.787 " stroke="none" fill="#30386c" fill-rule="evenodd"></path><path id="path4" d="" stroke="none" fill="#303c04" fill-rule="evenodd"></path></g></svg>